<svg width="593" height="171" viewBox="0 0 593 171" fill="none" xmlns="http://www.w3.org/2000/svg">
<path d="M105.335 109.408C107.429 119.319 106.055 129.399 100.643 137.892C88.1908 157.431 59.1016 161.161 35.6664 146.226C12.2351 131.292 3.33055 103.347 15.7826 83.8075C19.0055 78.7514 23.341 74.7604 28.405 71.8701C19.346 75.0019 11.5818 80.7271 6.37923 88.8913C-7.73577 111.04 2.35656 142.722 28.9197 159.652C55.4868 176.582 88.464 172.354 102.579 150.201C110.276 138.125 110.775 123.215 105.335 109.408Z" fill="white"/>
<path d="M93.805 81.3765C92.7281 78.6287 90.6178 76.3481 88.1907 74.8C86.2427 73.5607 83.9978 72.6026 81.6499 71.8701C81.4084 71.9612 81.1669 72.0483 80.9174 72.1354C80.8343 72.1671 80.7591 72.1908 80.668 72.2265C80.4502 72.3056 80.2246 72.3729 79.9949 72.4482C79.884 72.4878 79.7653 72.5274 79.6584 72.567C79.4406 72.6343 79.2268 72.6976 79.013 72.7689C78.8705 72.8085 78.7398 72.852 78.6012 72.8877C78.3953 72.9471 78.1855 73.0064 77.9757 73.0698C77.8173 73.1094 77.6708 73.149 77.5164 73.1965C77.3065 73.2519 77.0967 73.2994 76.8908 73.3549C76.7205 73.4024 76.5582 73.442 76.388 73.4816C76.1821 73.533 75.9762 73.5766 75.7584 73.6281C75.5803 73.6677 75.4021 73.7112 75.216 73.7468C75.0101 73.7943 74.8042 73.8379 74.5904 73.8815C74.4004 73.9131 74.2064 73.9527 74.0084 73.9923C73.7986 74.0319 73.5927 74.0715 73.3828 74.1071C73.1769 74.1507 72.9711 74.1824 72.7573 74.218C72.5514 74.2536 72.3455 74.2853 72.1317 74.317C72.0723 74.3249 72.0129 74.3328 71.9575 74.3407C71.7951 74.3684 71.6368 74.3922 71.4665 74.412C71.2606 74.4437 71.0508 74.4714 70.8409 74.4991C70.6034 74.5308 70.3737 74.5585 70.1362 74.5902C69.9224 74.6179 69.7165 74.6416 69.5066 74.6614C69.2532 74.6852 69.0038 74.7169 68.7465 74.7406C68.5366 74.7565 68.3426 74.7802 68.1288 74.8C67.8596 74.8198 67.5903 74.8396 67.3171 74.8634C67.1152 74.8713 66.9133 74.8911 66.7074 74.903C66.4105 74.9188 66.1135 74.9346 65.8166 74.9544C65.6186 74.9584 65.4404 74.9703 65.2425 74.9821C64.9019 74.994 64.5456 75.0059 64.1972 75.0178C64.0467 75.0178 63.8963 75.0217 63.7419 75.0297C63.2271 75.0415 62.7124 75.0455 62.1819 75.0455C61.3702 75.0455 60.5982 75.0297 59.834 74.998C59.6875 74.994 59.545 74.994 59.4024 74.9901C58.666 74.9544 57.9454 74.9109 57.2446 74.8634C57.1179 74.8475 56.9952 74.8436 56.8764 74.8317C55.4035 74.709 54.0138 74.5387 52.6914 74.3289C52.5964 74.3209 52.5053 74.3051 52.4182 74.2893C51.8045 74.1903 51.2066 74.0755 50.6325 73.9606C50.5811 73.9527 50.5375 73.9448 50.49 73.9369C50.4306 73.921 50.3831 73.9131 50.3237 73.8973C49.029 73.6201 47.8016 73.3113 46.6415 72.9589C46.6099 72.951 46.5782 72.9352 46.5465 72.9273C45.9566 72.7451 45.3864 72.563 44.84 72.3571C44.1867 72.1196 41.7993 73.6003 41.1697 73.9171C40.1522 74.4318 39.1624 74.998 38.22 75.6434C35.6742 77.3855 34.0113 79.4879 32.9898 81.8357C31.3902 85.51 31.3823 89.8019 32.087 94.2878C32.6334 97.7958 33.3105 101.288 34.1261 104.752C34.4983 106.34 34.9021 107.932 35.3337 109.523C34.8942 109.88 34.6171 110.422 34.6171 111.016V117.347C34.6171 118.222 35.203 118.986 36.0543 119.208L38.8417 119.94C39.8671 122.415 41.0312 124.83 42.3655 127.146L40.5917 130.171C40.1522 130.927 40.2789 131.886 40.8966 132.503L45.3627 136.973C45.7309 137.342 46.2258 137.536 46.7286 137.536C47.0573 137.536 47.3938 137.448 47.6947 137.266L49.5437 136.185C52.1173 138.418 55.0749 140.109 58.4166 140.877L58.6621 141.812C58.8838 142.659 59.644 143.253 60.519 143.253H66.8499C67.7289 143.253 68.4851 142.659 68.7108 141.812L69.0672 140.43C71.3913 139.757 73.561 138.735 75.5684 137.417C76.2336 136.985 76.8829 136.506 77.5124 136.007L79.6742 137.27C79.9791 137.452 80.3156 137.54 80.6442 137.54C81.1431 137.54 81.6341 137.346 82.0062 136.977L86.4763 132.507C87.0979 131.89 87.2167 130.927 86.7772 130.175L85.0153 127.17C86.3971 124.858 87.5731 122.435 88.5827 119.928L91.3186 119.212C92.1659 118.99 92.7598 118.226 92.7598 117.351V111.02C92.7598 110.343 92.4034 109.741 91.8491 109.397C92.4074 107.013 92.8627 104.614 93.2507 102.234C93.9476 97.8433 94.3831 93.4009 94.5454 88.9625C94.6286 86.3613 94.7672 83.8233 93.805 81.3765ZM90.8276 117.323C90.8158 117.327 90.8039 117.331 90.788 117.335L84.5283 118.97C84.4689 119.22 84.4056 119.469 84.3383 119.719C84.2591 120.019 84.172 120.312 84.077 120.605C83.5345 122.344 82.7625 123.987 81.8162 125.495L85.1104 131.117L80.6403 135.588L75.022 132.293C74.3568 132.713 73.6719 133.093 72.9592 133.43C71.8624 133.956 70.7182 134.4 69.5225 134.74C69.1859 134.835 68.8375 134.922 68.4931 135.002H68.4812L66.846 141.301H60.515L58.8798 135.002C57.4545 134.677 56.0806 134.206 54.7859 133.612C53.9346 133.224 53.123 132.784 52.339 132.293L46.7247 135.588L42.2506 131.117L45.5448 125.495C45.4735 125.376 45.4023 125.258 45.327 125.147C44.1907 123.254 43.3434 121.18 42.8327 118.974L36.5373 117.327V110.996L41.1658 109.789L42.8327 109.353C43.3434 107.144 44.1907 105.069 45.327 103.177C45.4023 103.058 45.4735 102.939 45.5448 102.828L42.2506 97.2059L46.7247 92.7358L52.339 96.026C52.8933 95.6815 53.4555 95.3568 54.0415 95.0678H54.0455C54.291 94.9451 54.5364 94.8263 54.7859 94.7194C56.0806 94.1215 57.4545 93.6543 58.8798 93.3218L60.515 87.0264H66.846L68.4812 93.3218H68.4931C68.9405 93.4247 69.3879 93.5435 69.8234 93.6741C70.9083 93.9988 71.9575 94.4066 72.9592 94.8896C73.6719 95.2341 74.3568 95.6142 75.022 96.026L80.6403 92.7358L85.1104 97.2059C85.1064 97.2098 85.1024 97.2177 85.0985 97.2296L81.8162 102.828C82.1211 103.307 82.4022 103.802 82.6675 104.313C83.3722 105.663 83.9384 107.104 84.3383 108.609C84.4056 108.858 84.4689 109.104 84.5283 109.357L90.8276 111V117.323Z" fill="url(#paint0_linear_268_10381)"/>
<path d="M76.4396 108.426V100.555C76.4396 100.444 76.4238 100.337 76.3921 100.234C76.2536 99.7789 75.8378 99.4503 75.339 99.4503H70.4096C69.7999 99.4503 69.3089 99.9413 69.3089 100.551V101.347C68.7387 101.093 68.1449 100.88 67.5391 100.709C67.4124 100.674 67.2817 100.638 67.159 100.602C67.159 100.602 67.155 100.602 67.1511 100.602C66.0425 100.313 64.8784 100.167 63.6827 100.167C56.0768 100.167 49.8884 106.237 49.6944 113.795C49.6904 113.894 49.6904 113.993 49.6904 114.092C49.6904 114.215 49.6904 114.333 49.6944 114.452C49.73 116.281 50.118 118.02 50.7951 119.611C50.9099 119.884 51.0326 120.15 51.1633 120.415C52.4501 122.992 54.5129 125.111 57.0429 126.473C57.1577 126.536 57.2765 126.595 57.3913 126.655C57.4428 126.683 57.4943 126.71 57.5497 126.73C57.6645 126.786 57.7833 126.845 57.8981 126.896C58.0169 126.952 58.1357 127.003 58.2505 127.055C58.4881 127.158 58.7256 127.253 58.9711 127.34C59.0938 127.383 59.2205 127.427 59.3433 127.467C59.4027 127.486 59.4621 127.506 59.5214 127.522C59.6877 127.573 59.854 127.621 60.0164 127.668C60.0758 127.684 60.1351 127.7 60.1985 127.716C60.3608 127.76 60.5192 127.799 60.6855 127.835L61.0379 127.906C61.2635 127.95 61.4892 127.985 61.7189 128.017C61.8297 128.037 61.9406 128.049 62.0435 128.06C62.1465 128.072 62.2494 128.084 62.3484 128.092C62.4513 128.104 62.5582 128.112 62.6612 128.12C62.7285 128.124 62.7918 128.128 62.8552 128.132C63.1284 128.148 63.3976 128.155 63.6748 128.155C63.8609 128.155 64.043 128.151 64.2291 128.144C64.3914 128.14 64.5498 128.128 64.7082 128.116C64.7675 128.112 64.823 128.108 64.8824 128.1C65.013 128.092 65.1476 128.08 65.2743 128.064C65.4723 128.041 65.6663 128.013 65.8603 127.985C66.0345 127.957 66.2087 127.926 66.383 127.89C66.383 127.89 66.383 127.89 66.3869 127.89C66.5611 127.855 66.7314 127.819 66.9016 127.775C67.056 127.74 67.2065 127.7 67.3609 127.661C67.3807 127.653 67.3965 127.649 67.4163 127.645C67.5866 127.593 67.7568 127.546 67.9231 127.49C68.0894 127.439 68.2557 127.383 68.418 127.32C68.5606 127.269 68.6992 127.217 68.8338 127.162C68.8655 127.15 68.8932 127.138 68.9248 127.126C69.1109 127.051 69.2891 126.972 69.4712 126.888C69.6296 126.817 69.788 126.742 69.9384 126.659C70.0572 126.603 70.176 126.54 70.2868 126.477C70.3225 126.461 70.3542 126.441 70.3898 126.421C70.5165 126.354 70.6392 126.283 70.758 126.207C71.0589 126.033 71.3519 125.847 71.6409 125.645C72.215 125.253 72.7575 124.81 73.2643 124.331C74.0522 123.59 74.749 122.755 75.3469 121.852C76.8039 119.643 77.6512 117.002 77.6512 114.155C77.667 112.116 77.2315 110.176 76.4396 108.426ZM57.0429 125.107C56.8251 124.976 56.6153 124.838 56.4054 124.695C56.0927 124.477 55.7838 124.248 55.4869 123.994C55.2929 123.832 55.1068 123.67 54.9207 123.495C54.8257 123.404 54.7307 123.313 54.6396 123.222L54.6277 123.21C54.5604 123.143 54.4971 123.076 54.4337 123.008C54.4337 123.004 54.4337 123.004 54.4297 123C53.4399 121.975 52.648 120.803 52.0621 119.552V117.402H57.0389V125.107H57.0429ZM63.1482 126.948C61.4021 126.881 59.7115 126.461 58.1713 125.724V114.583H63.1482V126.948ZM69.2574 125.689C67.7093 126.437 66.0266 126.869 64.2806 126.948V108.204H69.2574V125.689ZM75.3627 119.401C75.2914 119.56 75.2202 119.714 75.141 119.865C75.1251 119.896 75.1053 119.932 75.0895 119.964C75.0182 120.106 74.943 120.249 74.8599 120.387C74.7451 120.601 74.6184 120.807 74.4877 121.013C74.3293 121.262 74.167 121.504 73.9888 121.741C73.9096 121.844 73.8344 121.951 73.7552 122.05C73.7513 122.054 73.7513 122.054 73.7473 122.058C73.7156 122.098 73.684 122.133 73.6562 122.173C73.6483 122.185 73.6364 122.197 73.6246 122.209C73.5573 122.296 73.482 122.383 73.4108 122.466C73.197 122.723 72.9713 122.973 72.7298 123.214C72.3299 123.61 71.9102 123.978 71.4707 124.315C71.4153 124.358 71.3559 124.402 71.3004 124.442C71.2015 124.517 71.0985 124.592 70.9995 124.659C70.7936 124.802 70.5878 124.94 70.3779 125.067V100.579H75.3548V119.401H75.3627Z" fill="white"/>
<path d="M57.2051 20.0456C57.1299 20.0535 57.0547 20.0614 56.9794 20.0733C56.2945 20.1525 55.6135 20.2515 54.9404 20.3623C54.6711 20.4098 54.4098 20.4573 54.1445 20.5088L53.0716 17.8521L52.545 16.5455C52.4777 16.5495 52.4064 16.5495 52.3351 16.5495C50.5613 16.5416 48.8707 15.4765 48.1699 13.7265C47.4493 11.9487 47.9442 9.98096 49.2666 8.74565C49.6586 8.37347 50.1337 8.0686 50.6643 7.85084C51.2107 7.62912 51.7808 7.52222 52.3351 7.52222C52.5885 7.52222 52.834 7.54597 53.0716 7.58557C54.5801 7.83105 55.9262 8.83275 56.536 10.3531C57.1338 11.83 56.8884 13.4335 56.0331 14.6411C56.0015 14.6886 55.9658 14.7361 55.9302 14.7797C55.756 15.0133 55.558 15.2231 55.3363 15.4171L57.1259 19.8516L57.2051 20.0456Z" fill="white"/>
<path d="M96.1765 48.534C95.0481 42.8167 92.0786 34.3319 84.3104 28.6106C84.0689 28.4325 83.8274 28.2582 83.574 28.088C82.2437 27.1694 80.7787 26.3419 79.1752 25.6095C73.4579 23.0121 67.0319 22.0817 60.7049 22.4143C57.585 22.5766 54.4848 23.0478 51.5034 23.7723C48.4072 24.5325 45.3467 25.7876 42.6583 27.5099C42.4049 27.6723 42.1634 27.8306 41.9219 27.9969C32.7798 34.2091 30.42 44.1708 29.8578 49.991C29.5094 53.6454 30.6061 57.288 32.95 60.115C34.8069 62.356 37.6577 64.9097 41.9219 66.9805C42.1634 67.1032 42.4089 67.2141 42.6583 67.3249C45.3308 68.5365 48.526 69.5619 52.3389 70.2113C52.5843 70.2548 52.8258 70.2984 53.0753 70.338C53.3524 70.3776 53.6296 70.4251 53.9147 70.4607C56.4051 70.8012 59.1529 70.9992 62.1659 70.9992H62.1817C62.3718 70.9992 62.5618 70.9992 62.7519 70.9952C63.0013 70.9952 63.2428 70.9913 63.4883 70.9873C67.0676 70.924 70.2865 70.6072 73.1649 70.0846C73.3272 70.0569 73.4777 70.0291 73.6321 69.9975C73.7192 69.9816 73.8103 69.9658 73.9013 69.946C74.2062 69.8945 74.5032 69.8272 74.8001 69.7599C78.2051 69.0472 81.1073 68.0574 83.5779 66.925C83.8274 66.8063 84.0729 66.6954 84.3144 66.5766C86.1515 65.6858 87.7352 64.7197 89.1012 63.7338C90.4632 62.7519 91.6075 61.7502 92.5656 60.792C95.1115 58.2185 96.4616 54.7422 96.4458 51.1828C96.4378 50.3077 96.3468 49.4208 96.1765 48.534ZM42.6583 64.8266C42.4089 64.7038 42.1673 64.5772 41.9219 64.4505V57.775H41.1458C40.7816 57.775 40.4886 57.482 40.4886 57.1178V47.6154C40.4886 47.2551 40.7816 46.9542 41.1458 46.9542H41.9219V30.7962C42.1634 30.6061 42.4049 30.424 42.6583 30.2419V46.9542H43.4422C43.8025 46.9542 44.0995 47.2551 44.0995 47.6154V57.1178C44.0995 57.482 43.8025 57.775 43.4422 57.775H42.6583V64.8266ZM54.5125 56.5437C54.5125 56.9079 54.2156 57.2009 53.8513 57.2009H53.0753V68.0614C52.9684 68.0416 52.8575 68.0218 52.7546 68.002H52.7387L52.7269 67.994C52.5923 67.9743 52.4656 67.9505 52.3428 67.9228V57.2009H51.5628C51.2025 57.2009 50.9016 56.9079 50.9016 56.5437V35.4286C50.9016 35.0683 51.2025 34.7713 51.5628 34.7713H52.3428V25.8985C52.5131 25.8549 52.6754 25.8114 52.8496 25.7678C52.9248 25.7559 53.004 25.7362 53.0792 25.7203V34.7713H53.8553C54.2195 34.7713 54.5165 35.0683 54.5165 35.4286V56.5437H54.5125ZM64.9256 54.0849C64.9256 54.3898 64.6761 54.6353 64.3792 54.6353H63.4883V68.7424H63.4408C63.2112 68.7463 62.9855 68.7503 62.7519 68.7503V54.6353H61.865C61.5601 54.6353 61.3146 54.3858 61.3146 54.0849V41.9892C61.3146 41.6843 61.5601 41.4388 61.865 41.4388H62.7519V24.7067H63.0211C63.1597 24.7067 63.2943 24.7067 63.4289 24.7107H63.4883V41.4388H64.3792C64.6801 41.4388 64.9256 41.6883 64.9256 41.9892V54.0849ZM75.3346 55.3044C75.3346 55.6607 75.0377 55.9617 74.6774 55.9617H73.8974V67.6654C73.7588 67.6892 73.6282 67.7169 73.5015 67.7407L73.4579 67.7486C73.4025 67.7605 73.347 67.7723 73.2956 67.7803L73.2322 67.7921L73.1728 67.8C73.1689 67.8 73.1689 67.804 73.161 67.804V55.9656H72.381C72.0207 55.9656 71.7237 55.6647 71.7237 55.3084V38.9722C71.7237 38.6119 72.0207 38.311 72.381 38.311H73.161V25.9024C73.2085 25.9183 73.2481 25.9262 73.2956 25.942L73.3154 25.946L73.3352 25.95C73.5252 26.0014 73.7073 26.0529 73.8974 26.1083V38.311H74.6774C75.0377 38.311 75.3346 38.6119 75.3346 38.9722V55.3044ZM85.7516 45.9525C85.7516 46.3167 85.4507 46.6097 85.0904 46.6097H84.3104V64.0545C84.0689 64.1812 83.8234 64.3119 83.574 64.4307V46.6097H82.798C82.4337 46.6097 82.1367 46.3167 82.1367 45.9525V36.8064C82.1367 36.4422 82.4337 36.1452 82.798 36.1452H83.574V30.8991C83.8234 31.0971 84.0729 31.2832 84.3104 31.4851V36.1452H85.0904C85.4507 36.1452 85.7516 36.4422 85.7516 36.8064V45.9525Z" fill="url(#paint1_linear_268_10381)"/>
<path d="M74.1511 13.7234C74.0759 13.9015 73.9967 14.0678 73.9016 14.2341C73.6958 14.5984 73.4503 14.923 73.1652 15.2042C73.0544 15.315 72.9395 15.418 72.8287 15.5209C72.7851 15.5526 72.7416 15.5763 72.702 15.608C72.6188 15.6753 72.5357 15.7307 72.4565 15.7901C72.405 15.8218 72.3496 15.8495 72.2942 15.8812C72.2189 15.9327 72.1397 15.9841 72.0606 16.0237C72.0012 16.0554 71.9418 16.0792 71.8824 16.1029C71.8072 16.1465 71.724 16.1821 71.6409 16.2138C71.5775 16.2415 71.5142 16.2653 71.4508 16.2811C71.3756 16.3128 71.2924 16.3405 71.2093 16.3642C71.142 16.388 71.0747 16.3999 71.0113 16.4197C70.9282 16.4355 70.849 16.4553 70.7619 16.4711C70.6946 16.483 70.6233 16.4909 70.556 16.5028C70.4689 16.5147 70.3897 16.5226 70.3066 16.5305C70.2353 16.5345 70.168 16.5424 70.0928 16.5424C70.0453 16.5464 69.9938 16.5503 69.9384 16.5503C69.875 16.5503 69.8117 16.5503 69.7483 16.5464L68.3269 20.0662C67.5746 19.987 66.8382 19.9276 66.1057 19.8841C65.7929 19.8603 65.4841 19.8445 65.1753 19.8287L66.953 15.414C65.5593 14.1866 65.0169 12.1713 65.7534 10.35C65.8325 10.156 65.9315 9.97389 66.0305 9.79176C66.0582 9.75217 66.082 9.70465 66.1097 9.66506C66.2126 9.49481 66.3275 9.32852 66.4502 9.1741C66.4581 9.16618 66.47 9.15827 66.4779 9.14639C66.6006 8.99593 66.7313 8.86528 66.8659 8.74254C66.9016 8.7069 66.9372 8.67523 66.9689 8.64355C67.1193 8.51686 67.2737 8.39412 67.4321 8.28721C67.444 8.2793 67.4677 8.27138 67.4875 8.25554C67.638 8.16052 67.7924 8.07341 67.9468 7.99423C67.9864 7.97443 68.026 7.95067 68.0735 7.93483C68.2517 7.85169 68.4219 7.78438 68.608 7.72499C68.6357 7.71707 68.6635 7.71311 68.6912 7.70123C68.8575 7.65768 69.0238 7.62205 69.194 7.59037C69.2415 7.58245 69.2811 7.57454 69.3286 7.56662C69.5226 7.54286 69.7127 7.52702 69.9106 7.52702C69.9186 7.52702 69.9265 7.5191 69.9423 7.5191C70.0096 7.5191 70.0769 7.53098 70.1442 7.53494C70.2076 7.53494 70.2709 7.53494 70.3343 7.5389C70.4214 7.54682 70.5085 7.56266 70.5956 7.57453C70.655 7.58245 70.7144 7.59037 70.7698 7.60225C70.8688 7.62205 70.9638 7.64185 71.0588 7.66956C71.1064 7.68144 71.1578 7.68935 71.2014 7.70123C71.3004 7.73291 71.4033 7.76458 71.4983 7.80022C71.5459 7.81605 71.5894 7.83189 71.633 7.85169C72.2269 8.09321 72.7376 8.44163 73.1533 8.86528C73.4503 9.16223 73.6918 9.48689 73.8898 9.83927C74.5391 10.9914 74.6777 12.4089 74.1511 13.7234Z" fill="white"/>
<path d="M65.6702 4.50967C65.6702 6.0261 64.9298 7.36039 63.7815 8.17205C63.7024 8.22748 63.6192 8.28291 63.5321 8.33438C63.5163 8.34626 63.5004 8.35814 63.4846 8.36606C63.251 8.50463 63.0055 8.62737 62.7482 8.71844C62.7205 8.73427 62.6888 8.74615 62.6571 8.75803V19.7531C62.6017 19.7531 62.5462 19.7491 62.4908 19.7491C61.8336 19.7491 61.1763 19.765 60.527 19.7927C60.23 19.8046 59.941 19.8204 59.648 19.8362V8.75803C57.898 8.13642 56.6389 6.4735 56.6389 4.50967C56.6389 2.91406 57.4704 1.51246 58.7215 0.712679C59.4223 0.261315 60.2578 0 61.1526 0C61.7108 0 62.2493 0.102943 62.7442 0.292991C63.0016 0.388015 63.247 0.506794 63.4806 0.649329C64.7912 1.43328 65.6702 2.86655 65.6702 4.50967Z" fill="url(#paint2_linear_268_10381)"/>
<path opacity="0.2" d="M75.5646 137.392C73.5572 138.71 71.3914 139.732 69.0634 140.405L68.707 141.787C68.4813 142.634 67.7251 143.228 66.8461 143.228H60.5152C59.6402 143.228 58.88 142.634 58.6582 141.787L58.4128 140.852C55.0711 140.084 52.1135 138.398 49.5399 136.161L47.6909 137.242C47.3861 137.424 47.0535 137.511 46.7248 137.511C46.222 137.511 45.731 137.317 45.3589 136.949L40.8927 132.479C40.2751 131.861 40.1484 130.899 40.5918 130.146L42.3656 127.122C41.0274 124.809 39.8673 122.39 38.8418 119.916L36.0544 119.183C35.2032 118.961 34.6172 118.197 34.6172 117.322V110.991C34.6172 110.397 34.8944 109.859 35.3339 109.499C34.9023 107.907 34.4984 106.315 34.1263 104.728C33.3106 101.263 32.6336 97.775 32.0872 94.2631C31.3785 89.7772 31.3864 85.4853 32.9899 81.811C34.0075 79.4631 35.6744 77.3607 38.2202 75.6186C39.1665 74.9732 40.1524 74.4071 41.1699 73.8923C41.7994 73.5756 44.1869 72.0988 44.8402 72.3324C45.3866 72.5382 45.9567 72.7204 46.5467 72.9025C46.5783 72.9104 46.61 72.9263 46.6417 72.9342C47.8018 73.2826 49.0292 73.5954 50.3239 73.8725C50.3833 73.8884 50.4308 73.8963 50.4902 73.9121C50.5377 73.9201 50.5812 73.928 50.6327 73.9359C50.316 74.1299 50.0032 74.3239 49.6943 74.5258C47.0337 76.2481 44.6185 78.2714 42.9635 81.0231C39.3486 87.0254 38.5924 94.5402 39.4753 101.366C39.8396 104.177 40.3939 107.004 41.1659 109.784L36.5375 110.991V117.322L42.8328 118.969C43.3436 121.179 44.1909 123.249 45.3272 125.142C45.4024 125.257 45.4737 125.375 45.545 125.49L42.2508 131.113L46.7248 135.583L52.3392 132.288C53.1231 132.779 53.9348 133.219 54.786 133.607C56.0807 134.201 57.4546 134.672 58.88 134.997L60.5152 141.296H66.8461L68.4813 134.997H68.4932C68.8377 134.917 69.1861 134.83 69.5226 134.735C69.6375 134.739 69.7444 134.747 69.8552 134.759C71.8903 134.953 74.0006 135.602 75.3508 137.135C75.426 137.23 75.4933 137.305 75.5646 137.392Z" fill="white"/>
<path opacity="0.2" d="M63.6273 8.23518C63.5996 8.25102 63.5679 8.26289 63.5363 8.27477V8.33416C63.6234 8.28269 63.7065 8.22726 63.7857 8.17183C63.7303 8.19558 63.6748 8.21538 63.6273 8.23518ZM57.522 3.87992C57.522 2.65253 57.9734 1.54391 58.7257 0.708496C57.4745 1.50828 56.6431 2.90988 56.6431 4.50549C56.6431 6.46932 57.9021 8.13224 59.6522 8.75385V19.832C59.9451 19.8162 60.2342 19.8004 60.5311 19.7885V8.27477C58.7811 7.63336 57.522 5.91105 57.522 3.87992Z" fill="white"/>
<path opacity="0.2" d="M57.1298 19.8436C57.0784 19.9109 57.0308 19.9901 56.9833 20.0693C57.0586 20.0574 57.1338 20.0495 57.209 20.0416L57.1298 19.8436ZM55.9222 14.74L55.9341 14.7717C55.9697 14.7281 56.0054 14.6806 56.037 14.6331C56.0014 14.6727 55.9618 14.7083 55.9222 14.74ZM53.6575 17.179L53.1309 15.8724C53.0636 15.8763 52.9923 15.8763 52.925 15.8763C51.1473 15.8684 49.4566 14.8034 48.7558 13.0533C48.158 11.5646 48.4035 9.95319 49.2706 8.74164C47.9481 9.97695 47.4532 11.9447 48.1738 13.7225C48.8786 15.4685 50.5653 16.5376 52.339 16.5455C52.4103 16.5455 52.4816 16.5455 52.5489 16.5415L53.0755 17.8481L54.1484 20.5048C54.4137 20.4533 54.675 20.4058 54.9443 20.3583L53.6575 17.179Z" fill="white"/>
<path opacity="0.2" d="M71.2212 7.69733C71.1776 7.68545 71.1261 7.67753 71.0786 7.66565C70.9836 7.63794 70.8886 7.61814 70.7896 7.59834C70.7342 7.58647 70.6748 7.57855 70.6154 7.57063C70.5283 7.55875 70.4412 7.54291 70.3541 7.53499C70.2907 7.53103 70.2274 7.53103 70.164 7.53103C70.0967 7.52707 70.0294 7.5152 69.9621 7.5152C69.9463 7.5152 69.9383 7.52312 69.9304 7.52312C69.7325 7.52312 69.5424 7.53895 69.3484 7.56271C69.3009 7.57063 69.2613 7.57855 69.2138 7.58647C69.0435 7.61814 68.8772 7.65377 68.711 7.69733C68.6832 7.7092 68.6555 7.71316 68.6278 7.72108C68.4417 7.78047 68.2715 7.84778 68.0933 7.93093C68.0458 7.94676 68.0062 7.97052 67.9666 7.99032C67.8082 8.0695 67.6538 8.15661 67.5073 8.25163C67.4875 8.26747 67.4638 8.27539 67.4519 8.28331C67.2896 8.39417 67.1391 8.51691 66.9886 8.63965C66.957 8.67132 66.9213 8.70299 66.8857 8.73863C66.7471 8.86533 66.6165 8.99598 66.4977 9.14248C66.4898 9.15436 66.4779 9.16228 66.47 9.1702C66.3433 9.32461 66.2284 9.49486 66.1295 9.66115C66.1017 9.70075 66.078 9.74826 66.0503 9.78785C65.9513 9.96998 65.8523 10.1521 65.7731 10.3461C65.0367 12.1674 65.5791 14.1827 66.9728 15.4101L65.1951 19.8247C65.4999 19.8406 65.8127 19.8564 66.1255 19.8802L67.8359 15.6318C66.4423 14.4044 65.8998 12.3852 66.6363 10.5678C66.7154 10.3738 66.8144 10.1917 66.9134 10.0096C66.9411 9.96602 66.9649 9.92247 66.9926 9.88287C67.0955 9.70866 67.2104 9.54633 67.3331 9.39192C67.341 9.38004 67.3489 9.37212 67.3608 9.3642C67.4836 9.21375 67.6142 9.08309 67.7449 8.96035C67.7805 8.92076 67.8201 8.88908 67.8518 8.85741C68.0022 8.73071 68.1566 8.60797 68.315 8.50503C68.3269 8.49711 68.3506 8.48523 68.3704 8.47335C68.5169 8.37833 68.6714 8.29123 68.8297 8.20808C68.8693 8.19224 68.9089 8.16849 68.9564 8.14869C69.1306 8.0695 69.3049 8.00219 69.4909 7.9428C69.5187 7.93092 69.5464 7.92697 69.5741 7.91905C69.7404 7.87154 69.9067 7.8359 70.0769 7.80423C70.1244 7.80027 70.164 7.79235 70.2076 7.78047C70.4055 7.76068 70.5956 7.74088 70.7896 7.74088C70.8015 7.74088 70.8094 7.73692 70.8213 7.73692C70.8925 7.73692 70.9599 7.74484 71.0272 7.7488C71.0905 7.7488 71.1539 7.7488 71.2172 7.75671C71.3043 7.76463 71.3914 7.77651 71.4746 7.79235C71.4864 7.79235 71.5023 7.79631 71.5142 7.79631C71.4191 7.76068 71.3162 7.729 71.2212 7.69733Z" fill="white"/>
<path opacity="0.2" d="M75.3627 119.402V121.852C74.7649 122.759 74.068 123.591 73.2801 124.331C72.7733 124.81 72.2309 125.254 71.6568 125.646C71.3678 125.847 71.0748 126.034 70.7739 126.208C70.6511 126.283 70.5284 126.354 70.4057 126.422C70.37 126.441 70.3383 126.461 70.3027 126.477C70.1879 126.54 70.0691 126.604 69.9543 126.659C69.7999 126.742 69.6455 126.817 69.4871 126.889C69.305 126.972 69.1268 127.051 68.9407 127.126C68.909 127.138 68.8813 127.15 68.8496 127.162C68.7111 127.217 68.5725 127.269 68.4339 127.32C68.2676 127.384 68.1013 127.439 67.939 127.491C67.7687 127.546 67.6025 127.594 67.4322 127.645C67.4124 127.649 67.3966 127.653 67.3768 127.661C67.2224 127.7 67.0679 127.74 66.9175 127.776C66.7472 127.819 66.577 127.855 66.4028 127.89C66.3988 127.89 66.3988 127.89 66.3988 127.89C66.2246 127.926 66.0504 127.958 65.8762 127.985C65.6822 128.013 65.4882 128.041 65.2902 128.065C65.1595 128.081 65.0249 128.092 64.8982 128.1C64.8388 128.108 64.7834 128.112 64.724 128.116C64.5617 128.128 64.4033 128.14 64.2449 128.144C64.0589 128.152 63.8767 128.156 63.6906 128.156C63.4135 128.156 63.1443 128.148 62.8711 128.132C62.8077 128.128 62.7444 128.124 62.677 128.12C62.5741 128.112 62.4672 128.104 62.3643 128.092C62.2613 128.084 62.1584 128.073 62.0594 128.061C61.9525 128.049 61.8416 128.037 61.7347 128.017C61.5051 127.985 61.2794 127.95 61.0537 127.906L60.7013 127.835C60.5351 127.799 60.3767 127.76 60.2144 127.716C60.151 127.7 60.0916 127.685 60.0322 127.669C59.8659 127.621 59.7036 127.574 59.5373 127.522C59.4779 127.506 59.4185 127.487 59.3591 127.467C59.2324 127.427 59.1057 127.384 58.987 127.34C58.7415 127.253 58.5039 127.158 58.2664 127.055C58.1476 127.004 58.0288 126.952 57.914 126.897C57.7952 126.845 57.6764 126.786 57.5656 126.73C57.5101 126.711 57.4587 126.683 57.4072 126.655C57.2884 126.596 57.1696 126.536 57.0588 126.473C54.5288 125.107 52.466 122.989 51.1792 120.415C51.0446 120.15 50.9218 119.885 50.811 119.611L50.8268 119.584C50.8228 119.572 50.8149 119.556 50.811 119.544C50.1418 117.972 49.7578 116.254 49.7102 114.452C49.7063 114.33 49.7063 114.211 49.7063 114.092C49.7063 113.993 49.7063 113.894 49.7102 113.795C49.9043 106.241 56.0927 100.167 63.6986 100.167C64.8903 100.167 66.0544 100.318 67.1669 100.603C66.7908 100.571 66.4028 100.555 66.0187 100.555C58.1911 100.555 51.8443 106.902 51.8443 114.734C51.8443 115.624 51.9275 116.492 52.0858 117.339C52.0858 117.343 52.0858 117.343 52.0858 117.347V119.556C52.6718 120.807 53.4637 121.975 54.4535 123.005C54.4575 123.009 54.4575 123.009 54.4575 123.013C54.5208 123.08 54.5842 123.147 54.6515 123.214L54.6634 123.226C54.7544 123.317 54.8495 123.408 54.9445 123.5C55.1306 123.674 55.3167 123.836 55.5107 123.998C55.8076 124.252 56.1125 124.481 56.4292 124.699C56.6391 124.846 56.8489 124.984 57.0667 125.111V116.143L58.1951 114.583V125.725C59.7392 126.461 61.4259 126.881 63.172 126.948V109.848L64.3043 108.209V126.952C66.0504 126.873 67.7371 126.441 69.2812 125.693V103.319L70.1364 101.24L70.1602 101.181L70.4096 100.583V125.071C70.6195 124.941 70.8253 124.802 71.0312 124.664C71.1302 124.596 71.2332 124.521 71.3321 124.446C71.3876 124.406 71.447 124.363 71.5024 124.319C71.9419 123.983 72.3616 123.614 72.7615 123.218C73.003 122.977 73.2287 122.727 73.4425 122.47C73.5137 122.387 73.589 122.3 73.6563 122.213C73.6681 122.201 73.68 122.189 73.6879 122.177C73.7157 122.138 73.7473 122.102 73.779 122.062C73.783 122.058 73.783 122.058 73.7869 122.054C73.8661 121.955 73.9413 121.849 74.0205 121.746C74.1987 121.508 74.361 121.266 74.5194 121.017C74.654 120.811 74.7807 120.605 74.8916 120.391C74.9747 120.249 75.05 120.106 75.1212 119.968C75.1371 119.936 75.1569 119.901 75.1727 119.869C75.2202 119.714 75.2915 119.56 75.3627 119.402Z" fill="white"/>
<path opacity="0.2" d="M69.8234 93.6661C69.3878 93.5315 68.9404 93.4127 68.493 93.3137H68.4811L66.8459 87.0184L69.8234 93.6661Z" fill="white"/>
<path opacity="0.2" d="M85.0987 97.2214C84.9205 97.6015 83.705 101.201 82.6677 104.305C82.4024 103.798 82.1213 103.303 81.8164 102.82L85.0987 97.2214Z" fill="white"/>
<path opacity="0.2" d="M90.7879 117.339C90.289 117.521 86.8563 119.219 84.0808 120.609C84.1758 120.316 84.2629 120.023 84.3421 119.722C84.4094 119.473 84.4728 119.223 84.5322 118.974L90.7879 117.339Z" fill="white"/>
<path opacity="0.2" d="M54.0378 95.0601C53.4518 95.3531 52.8896 95.6738 52.3353 96.0182L46.7209 92.728L54.0378 95.0601Z" fill="white"/>
<path opacity="0.2" d="M105.335 109.408C111.143 126.188 104.246 144.488 88.8599 153.365C78.9933 159.256 66.9411 160.733 55.7243 158.817C37.1551 155.626 20.1617 143.312 11.95 126.271C7.62246 117.315 5.82097 106.906 7.92733 97.1106C9.00031 92.1496 11.0354 87.3984 14.0484 83.3084C17.6514 78.2563 22.7154 74.2534 28.4089 71.866C24.9287 73.8535 21.7612 76.3954 19.1045 79.3966C10.9245 88.5941 8.44996 101.375 11.3086 113.201C17.0417 137.322 40.9758 155.036 65.4841 155.372C91.5879 155.697 110.743 135.746 105.335 109.408Z" fill="white"/>
<path opacity="0.2" d="M42.6583 58.5509V64.8264C42.4089 64.7037 42.1674 64.577 41.9219 64.4503V57.7749H41.1459C40.7816 57.7749 40.4886 57.4819 40.4886 57.1176V51.4637C40.3105 50.2838 40.2194 49.0842 40.2194 47.8647C40.2194 44.7051 40.8212 41.6802 41.9179 38.8651V30.8C42.1595 30.6099 42.401 30.4278 42.6544 30.2457V37.1785C44.7607 32.7796 48.1222 28.9985 52.3349 26.227V25.9023C52.5052 25.8587 52.6675 25.8152 52.8417 25.7716C52.917 25.7598 52.9961 25.74 53.0714 25.7241V25.7598C55.3995 24.3225 57.9611 23.1902 60.701 22.4181C57.581 22.5804 54.4809 23.0516 51.4995 23.7761C48.4033 24.5363 45.3428 25.7914 42.6544 27.5137C42.401 27.6761 42.1595 27.8345 41.9179 28.0007C32.7759 34.2129 30.4161 44.1746 29.8539 49.9948C29.5055 53.6493 30.6022 57.2918 32.9461 60.1188C34.803 62.3598 37.6537 64.9136 41.9179 66.9843C42.1595 67.107 42.4049 67.2179 42.6544 67.3287C45.3269 68.5403 48.5221 69.5658 52.3349 70.2151C52.5804 70.2586 52.8219 70.3022 53.0714 70.3418C53.3485 70.3814 53.6257 70.4289 53.9108 70.4645C48.9735 67.6415 45.0221 63.4882 42.6583 58.5509Z" fill="white"/>
<path d="M209.54 62.0056C209.54 63.2641 209.092 64.4889 208.197 65.6883C207.242 66.9468 206.009 67.5718 204.514 67.5718C203.492 67.5718 202.478 67.3015 201.465 66.761C198.534 65.3842 195.358 64.7 191.946 64.7C187.756 64.7 184.107 65.5869 180.991 67.3522C177.874 69.1175 175.483 71.6007 173.811 74.8019C172.139 78.0032 171.294 81.6689 171.294 85.7992C171.294 92.8605 173.194 98.2155 176.995 101.864C180.796 105.513 185.78 107.338 191.946 107.338C195.594 107.338 198.77 106.654 201.465 105.277C202.546 104.795 203.5 104.559 204.337 104.559C205.891 104.559 207.208 105.218 208.289 106.535C209.185 107.676 209.632 108.9 209.632 110.218C209.632 111.172 209.396 112.042 208.915 112.819C208.433 113.596 207.749 114.196 206.854 114.619C202.183 116.95 197.216 118.124 191.954 118.124C186.092 118.124 180.703 116.882 175.796 114.399C170.889 111.916 166.969 108.25 164.039 103.402C161.108 98.5534 159.638 92.6915 159.638 85.8077C159.638 79.7009 161.032 74.2276 163.81 69.3793C166.589 64.5311 170.441 60.7471 175.348 58.0273C180.256 55.3076 185.788 53.9393 191.954 53.9393C197.284 53.9393 202.216 55.1048 206.769 57.4445C208.61 58.3905 209.54 59.9109 209.54 62.0056Z" fill="url(#paint3_linear_268_10381)"/>
<path d="M264.526 88.1301C266.528 90.7063 267.533 94.0257 267.533 98.0969C267.533 105.217 265.497 110.184 261.426 112.996C257.355 115.809 252.507 117.22 246.881 117.22H224.532C222.978 117.22 221.677 116.696 220.63 115.649C219.582 114.601 219.059 113.301 219.059 111.746V59.8514C219.059 58.2973 219.582 56.9966 220.63 55.9492C221.677 54.9018 222.978 54.3781 224.532 54.3781H247.151C258.52 54.3781 264.205 59.7079 264.205 70.3588C264.205 73.0532 263.563 75.4351 262.271 77.496C260.987 79.557 259.145 81.1956 256.747 82.3866C259.931 83.6451 262.524 85.5624 264.526 88.1301ZM250.699 66.8113C249.474 65.5866 247.751 64.97 245.538 64.97H230.723V78.9742H245.808C247.608 78.9742 249.179 78.3745 250.522 77.1751C251.865 75.9757 252.54 74.3624 252.54 72.3268C252.54 69.8773 251.932 68.036 250.699 66.8113ZM253.486 104.651C255.074 103.156 255.868 100.969 255.868 98.0969C255.868 94.5663 254.939 92.2604 253.089 91.1877C251.231 90.1066 248.959 89.5745 246.265 89.5745H230.732V106.898H246.89C249.702 106.89 251.898 106.146 253.486 104.651Z" fill="url(#paint4_linear_268_10381)"/>
<path d="M306.674 56.6672C309.909 58.9731 312.392 61.9969 314.124 65.7302C315.855 69.472 316.725 73.4672 316.725 77.7157C316.725 82.0825 315.965 86.8886 314.436 92.1254C312.907 97.3622 310.128 102.312 306.091 106.983C302.054 111.654 296.563 114.973 289.62 116.949C288.902 117.127 288.21 117.22 287.559 117.22C286.005 117.22 284.713 116.814 283.699 116.003C282.677 115.193 282.171 113.926 282.171 112.186C282.171 110.868 282.601 109.719 283.471 108.731C284.341 107.743 285.49 107.042 286.926 106.619C290.693 105.538 294.181 103.629 297.383 100.876C300.584 98.1223 302.932 94.8283 304.427 91.002C301.437 93.5782 298.025 94.862 294.19 94.862C291.073 94.862 288.007 93.916 284.992 92.0325C281.968 90.1489 279.502 87.6065 277.584 84.4053C275.667 81.2041 274.712 77.7495 274.712 74.0331C274.712 70.266 275.658 66.7776 277.542 63.5764C279.426 60.3752 281.951 57.8497 285.127 55.9915C288.294 54.1333 291.8 53.2126 295.634 53.2126C299.765 53.2126 303.447 54.3613 306.674 56.6672ZM302.856 81.8461C304.799 79.7513 305.77 77.1498 305.77 74.0331C305.77 70.9248 304.799 68.3149 302.856 66.2201C300.913 64.1254 298.506 63.078 295.626 63.078C292.813 63.078 290.423 64.1254 288.446 66.2201C286.47 68.3149 285.482 70.9164 285.482 74.0331C285.482 77.1498 286.47 79.7513 288.446 81.8461C290.423 83.9408 292.813 84.9881 295.626 84.9881C298.506 84.9881 300.913 83.9408 302.856 81.8461Z" fill="url(#paint5_linear_268_10381)"/>
<path d="M334.91 114.078C331.287 111.383 328.55 107.599 326.7 102.725C324.842 97.8519 323.921 92.2097 323.921 85.8073C323.921 79.4049 324.851 73.7626 326.7 68.889C328.558 64.0154 331.295 60.223 334.91 57.537C338.534 54.8426 342.858 53.4996 347.884 53.4996C352.91 53.4996 357.234 54.8426 360.858 57.537C364.481 60.2314 367.218 64.0154 369.068 68.889C370.926 73.7711 371.847 79.4049 371.847 85.8073C371.847 92.2097 370.917 97.8519 369.068 102.725C367.209 107.608 364.473 111.392 360.858 114.078C357.234 116.772 352.91 118.115 347.884 118.115C342.858 118.115 338.525 116.772 334.91 114.078ZM356.905 101.864C359.092 98.2151 360.182 92.8601 360.182 85.7988C360.182 78.7376 359.092 73.3825 356.905 69.7337C354.717 66.0848 351.71 64.2604 347.884 64.2604C344.049 64.2604 341.042 66.0848 338.863 69.7337C336.676 73.3825 335.586 78.7376 335.586 85.7988C335.586 92.8601 336.676 98.2151 338.863 101.864C341.051 105.513 344.058 107.337 347.884 107.337C351.71 107.346 354.717 105.521 356.905 101.864Z" fill="url(#paint6_linear_268_10381)"/>
<path d="M384.052 89.9292C383.004 88.9157 382.48 87.6233 382.48 86.0692C382.48 84.5742 383.004 83.3156 384.052 82.3021C385.099 81.2885 386.4 80.7733 387.954 80.7733H403.571C405.125 80.7733 406.426 81.297 407.473 82.3443C408.521 83.3917 409.045 84.6924 409.045 86.2466C409.045 87.7416 408.521 88.9832 407.473 89.9714C406.426 90.9597 405.125 91.4496 403.571 91.4496H387.954C386.4 91.4496 385.099 90.9428 384.052 89.9292Z" fill="url(#paint7_linear_268_10381)"/>
<path d="M454.926 57.1148C457.679 58.9392 459.892 61.3971 461.565 64.4801C463.237 67.563 464.082 70.9332 464.082 74.582C464.082 78.1718 463.245 81.525 461.565 84.6333C459.892 87.75 457.671 90.2164 454.926 92.0408C452.172 93.8653 449.267 94.7775 446.217 94.7775H430.6V111.746C430.6 113.36 430.118 114.677 429.164 115.699C428.21 116.721 426.951 117.228 425.397 117.228C423.902 117.228 422.677 116.704 421.714 115.657C420.76 114.61 420.278 113.309 420.278 111.755V59.8514C420.278 58.2973 420.802 56.9966 421.849 55.9492C422.897 54.9018 424.197 54.3781 425.752 54.3781H446.217C449.275 54.3781 452.172 55.2903 454.926 57.1148ZM449.587 83.1045C450.694 82.15 451.589 80.9084 452.282 79.3796C452.966 77.8508 453.312 76.2544 453.312 74.5736C453.312 72.9012 452.966 71.2964 452.282 69.7676C451.589 68.2388 450.694 67.014 449.587 66.0849C448.481 65.1558 447.358 64.6912 446.217 64.6912H430.6V84.5319H446.217C447.358 84.5404 448.481 84.0589 449.587 83.1045Z" fill="white"/>
<path d="M525.53 110.302C525.977 111.079 526.206 111.89 526.206 112.726C526.206 113.807 525.842 114.787 525.124 115.691C524.229 116.772 522.852 117.304 520.994 117.304C519.558 117.304 518.241 116.975 517.041 116.316C512.733 113.866 510.58 108.866 510.58 101.323C510.58 99.1696 509.879 97.4635 508.468 96.2049C507.057 94.9464 505.039 94.3214 502.412 94.3214H485.62V111.738C485.62 113.351 485.19 114.669 484.32 115.691C483.45 116.713 482.301 117.22 480.865 117.22C479.125 117.22 477.622 116.696 476.329 115.649C475.045 114.601 474.395 113.301 474.395 111.746V59.8514C474.395 58.2973 474.919 56.9966 475.966 55.9492C477.013 54.9018 478.314 54.3781 479.868 54.3781H505.723C508.831 54.3781 511.771 55.2143 514.524 56.8952C517.278 58.5676 519.474 60.8735 521.121 63.8044C522.768 66.7353 523.587 70.0294 523.587 73.6783C523.587 76.6683 522.776 79.5908 521.163 82.4288C519.55 85.2752 517.455 87.5304 514.879 89.2028C518.646 91.8381 520.715 95.3687 521.07 99.7947C521.247 100.749 521.34 101.678 521.34 102.574C521.577 104.432 521.822 105.758 522.058 106.569C522.295 107.38 522.835 107.988 523.672 108.41C524.466 108.9 525.082 109.525 525.53 110.302ZM508.434 83.5522C509.448 82.5386 510.292 81.1702 510.951 79.4641C511.61 77.7579 511.939 75.9166 511.939 73.9401C511.939 72.2677 511.61 70.722 510.951 69.3199C510.292 67.9178 509.456 66.7944 508.434 65.9498C507.412 65.1136 506.373 64.6912 505.292 64.6912H485.629V85.0725H505.292C506.365 85.081 507.412 84.5742 508.434 83.5522Z" fill="white"/>
<path d="M589.047 102.092C586.412 107.034 582.78 110.936 578.143 113.808C573.506 116.679 568.286 118.115 562.475 118.115C556.672 118.115 551.443 116.679 546.806 113.808C542.169 110.936 538.546 107.034 535.944 102.092C533.343 97.1513 532.042 91.7202 532.042 85.7993C532.042 79.8783 533.343 74.4473 535.944 69.5061C538.546 64.5649 542.169 60.6627 546.806 57.7909C551.443 54.9191 556.663 53.4832 562.475 53.4832C568.277 53.4832 573.497 54.9191 578.143 57.7909C582.78 60.6627 586.412 64.5649 589.047 69.5061C591.682 74.4473 593 79.8783 593 85.7993C593 91.7202 591.674 97.1513 589.047 102.092ZM578.903 74.8865C577.29 71.6261 575.043 69.0331 572.171 67.1242C569.299 65.2068 566.064 64.2524 562.475 64.2524C558.826 64.2524 555.574 65.1984 552.736 67.082C549.889 68.9655 547.676 71.5586 546.097 74.8442C544.509 78.1384 543.715 81.7872 543.715 85.7993C543.715 89.8113 544.509 93.4602 546.097 96.7543C547.685 100.048 549.898 102.633 552.736 104.517C555.574 106.4 558.826 107.346 562.475 107.346C566.064 107.346 569.299 106.392 572.171 104.474C575.043 102.557 577.29 99.9724 578.903 96.7121C580.516 93.4517 581.327 89.8113 581.327 85.8077C581.327 81.7872 580.516 78.1552 578.903 74.8865Z" fill="white"/>
<defs>
<linearGradient id="paint0_linear_268_10381" x1="31.6335" y1="107.549" x2="94.6017" y2="107.549" gradientUnits="userSpaceOnUse">
<stop stop-color="#005F89"/>
<stop offset="1" stop-color="#00FFFF"/>
</linearGradient>
<linearGradient id="paint1_linear_268_10381" x1="29.7963" y1="46.679" x2="96.4421" y2="46.679" gradientUnits="userSpaceOnUse">
<stop stop-color="#005F89"/>
<stop offset="1" stop-color="#00FFFF"/>
</linearGradient>
<linearGradient id="paint2_linear_268_10381" x1="29.7881" y1="9.9178" x2="96.4521" y2="9.9178" gradientUnits="userSpaceOnUse">
<stop stop-color="#005F89"/>
<stop offset="1" stop-color="#00FFFF"/>
</linearGradient>
<linearGradient id="paint3_linear_268_10381" x1="184.631" y1="118.115" x2="184.631" y2="53.2104" gradientUnits="userSpaceOnUse">
<stop stop-color="#005F89"/>
<stop offset="1" stop-color="#00FFFF"/>
</linearGradient>
<linearGradient id="paint4_linear_268_10381" x1="243.296" y1="118.115" x2="243.296" y2="53.2101" gradientUnits="userSpaceOnUse">
<stop stop-color="#005F89"/>
<stop offset="1" stop-color="#00FFFF"/>
</linearGradient>
<linearGradient id="paint5_linear_268_10381" x1="295.723" y1="118.115" x2="295.723" y2="53.2101" gradientUnits="userSpaceOnUse">
<stop stop-color="#005F89"/>
<stop offset="1" stop-color="#00FFFF"/>
</linearGradient>
<linearGradient id="paint6_linear_268_10381" x1="347.879" y1="118.115" x2="347.879" y2="53.21" gradientUnits="userSpaceOnUse">
<stop stop-color="#005F89"/>
<stop offset="1" stop-color="#00FFFF"/>
</linearGradient>
<linearGradient id="paint7_linear_268_10381" x1="382.481" y1="86.1112" x2="592.995" y2="86.1112" gradientUnits="userSpaceOnUse">
<stop stop-color="white"/>
<stop offset="1" stop-color="white"/>
</linearGradient>
</defs>
</svg>
