<svg width="147" height="43" viewBox="0 0 147 43" fill="none" xmlns="http://www.w3.org/2000/svg">
<path d="M26.0178 27.3033C26.5351 29.7511 26.1957 32.241 24.8589 34.3387C21.7832 39.1649 14.5982 40.0861 8.80962 36.3973C3.02207 32.7084 0.822648 25.806 3.89832 20.9798C4.69438 19.7309 5.76524 18.7452 7.01605 18.0312C4.77849 18.8048 2.86071 20.2189 1.57568 22.2355C-1.91074 27.7062 0.582072 35.5318 7.14319 39.7135C13.7053 43.8953 21.8507 42.8508 25.3371 37.3792C27.2382 34.3964 27.3615 30.7134 26.0178 27.3033Z" fill="white"/>
<path d="M23.1698 20.3793C22.9038 19.7006 22.3826 19.1373 21.7831 18.7549C21.3019 18.4488 20.7474 18.2122 20.1675 18.0312C20.1079 18.0537 20.0482 18.0753 19.9866 18.0968C19.9661 18.1046 19.9475 18.1105 19.925 18.1193C19.8712 18.1388 19.8155 18.1554 19.7587 18.174C19.7313 18.1838 19.702 18.1936 19.6756 18.2034C19.6218 18.22 19.569 18.2356 19.5162 18.2532C19.481 18.263 19.4487 18.2738 19.4145 18.2826C19.3636 18.2973 19.3118 18.3119 19.26 18.3276C19.2209 18.3374 19.1847 18.3471 19.1465 18.3589C19.0947 18.3726 19.0429 18.3843 18.992 18.398C18.95 18.4097 18.9099 18.4195 18.8678 18.4293C18.817 18.442 18.7661 18.4527 18.7123 18.4655C18.6683 18.4752 18.6243 18.486 18.5783 18.4948C18.5275 18.5065 18.4766 18.5173 18.4238 18.5281C18.3769 18.5359 18.329 18.5457 18.2801 18.5554C18.2282 18.5652 18.1774 18.575 18.1255 18.5838C18.0747 18.5946 18.0238 18.6024 17.971 18.6112C17.9202 18.62 17.8693 18.6278 17.8165 18.6356C17.8018 18.6376 17.7872 18.6395 17.7735 18.6415C17.7334 18.6483 17.6943 18.6542 17.6522 18.6591C17.6014 18.6669 17.5495 18.6738 17.4977 18.6806C17.439 18.6884 17.3823 18.6953 17.3236 18.7031C17.2708 18.71 17.22 18.7158 17.1681 18.7207C17.1055 18.7266 17.0439 18.7344 16.9804 18.7403C16.9285 18.7442 16.8806 18.75 16.8278 18.7549C16.7613 18.7598 16.6948 18.7647 16.6273 18.7706C16.5774 18.7725 16.5276 18.7774 16.4767 18.7804C16.4034 18.7843 16.33 18.7882 16.2567 18.7931C16.2078 18.7941 16.1638 18.797 16.1149 18.7999C16.0308 18.8029 15.9427 18.8058 15.8567 18.8087C15.8195 18.8087 15.7824 18.8097 15.7442 18.8117C15.6171 18.8146 15.4899 18.8156 15.3589 18.8156C15.1584 18.8156 14.9677 18.8117 14.779 18.8038C14.7428 18.8029 14.7076 18.8029 14.6724 18.8019C14.4905 18.7931 14.3125 18.7823 14.1394 18.7706C14.1081 18.7667 14.0778 18.7657 14.0484 18.7628C13.6846 18.7324 13.3414 18.6904 13.0147 18.6386C12.9913 18.6366 12.9688 18.6327 12.9473 18.6288C12.7957 18.6043 12.648 18.576 12.5062 18.5476C12.4935 18.5457 12.4827 18.5437 12.471 18.5417C12.4563 18.5378 12.4446 18.5359 12.4299 18.532C12.1101 18.4635 11.807 18.3872 11.5204 18.3002C11.5126 18.2982 11.5048 18.2943 11.4969 18.2924C11.3512 18.2474 11.2104 18.2024 11.0754 18.1515C10.9141 18.0929 10.3244 18.4586 10.1689 18.5369C9.91755 18.664 9.67306 18.8038 9.4403 18.9632C8.81148 19.3935 8.40074 19.9128 8.14842 20.4928C7.75333 21.4003 7.75137 22.4604 7.92545 23.5684C8.06041 24.4349 8.22764 25.2975 8.4291 26.1532C8.52102 26.5453 8.62078 26.9385 8.72737 27.3316C8.61882 27.4196 8.55036 27.5536 8.55036 27.7003V29.2641C8.55036 29.4802 8.6951 29.6689 8.90536 29.7237L9.59384 29.9046C9.84713 30.5158 10.1347 31.1124 10.4642 31.6845L10.0261 32.4317C9.91755 32.6185 9.94884 32.8551 10.1014 33.0077L11.2045 34.1118C11.2955 34.2027 11.4177 34.2507 11.5419 34.2507C11.6231 34.2507 11.7062 34.2292 11.7806 34.1842L12.2373 33.9172C12.8729 34.4688 13.6035 34.8863 14.4289 35.0761L14.4895 35.3069C14.5443 35.5161 14.732 35.6628 14.9482 35.6628H16.5119C16.729 35.6628 16.9158 35.5161 16.9716 35.3069L17.0596 34.9656C17.6336 34.7993 18.1695 34.547 18.6654 34.2213C18.8297 34.1147 18.9901 33.9964 19.1455 33.8732L19.6795 34.1851C19.7548 34.2301 19.8379 34.2516 19.9191 34.2516C20.0423 34.2516 20.1636 34.2037 20.2555 34.1128L21.3596 33.0087C21.5132 32.8561 21.5425 32.6185 21.434 32.4326L20.9988 31.6904C21.3401 31.1192 21.6305 30.5207 21.8799 29.9017L22.5557 29.7247C22.765 29.6699 22.9117 29.4812 22.9117 29.265V27.7013C22.9117 27.5341 22.8236 27.3854 22.6867 27.3003C22.8246 26.7116 22.9371 26.119 23.0329 25.5312C23.205 24.4466 23.3126 23.3494 23.3527 22.2531C23.3733 21.6106 23.4075 20.9837 23.1698 20.3793ZM22.4344 29.2582C22.4315 29.2592 22.4286 29.2602 22.4246 29.2611L20.8785 29.665C20.8638 29.7266 20.8482 29.7882 20.8315 29.8499C20.812 29.9242 20.7905 29.9966 20.767 30.0689C20.633 30.4982 20.4423 30.9041 20.2086 31.2767L21.0222 32.6654L19.9181 33.7695L18.5304 32.9559C18.3661 33.0595 18.1969 33.1534 18.0209 33.2365C17.75 33.3666 17.4674 33.4761 17.172 33.5602C17.0889 33.5837 17.0028 33.6052 16.9178 33.6248H16.9148L16.5109 35.1807H14.9472L14.5433 33.6248C14.1912 33.5446 13.8519 33.4282 13.5321 33.2815C13.3218 33.1857 13.1213 33.0771 12.9277 32.9559L11.541 33.7695L10.4359 32.6654L11.2495 31.2767C11.2319 31.2474 11.2143 31.218 11.1957 31.1906C10.9151 30.7232 10.7058 30.2107 10.5796 29.666L9.02467 29.2592V27.6954L10.1679 27.3971L10.5796 27.2896C10.7058 26.7439 10.9151 26.2314 11.1957 25.764C11.2143 25.7346 11.2319 25.7053 11.2495 25.6779L10.4359 24.2892L11.541 23.1851L12.9277 23.9978C13.0646 23.9127 13.2035 23.8325 13.3482 23.7611H13.3492C13.4098 23.7308 13.4705 23.7014 13.5321 23.675C13.8519 23.5274 14.1912 23.412 14.5433 23.3298L14.9472 21.7749H16.5109L16.9148 23.3298H16.9178C17.0283 23.3552 17.1388 23.3846 17.2464 23.4169C17.5143 23.4971 17.7735 23.5978 18.0209 23.7171C18.1969 23.8022 18.3661 23.8961 18.5304 23.9978L19.9181 23.1851L21.0222 24.2892C21.0213 24.2902 21.0203 24.2921 21.0193 24.2951L20.2086 25.6779C20.2839 25.7962 20.3533 25.9185 20.4189 26.0446C20.5929 26.3781 20.7328 26.7341 20.8315 27.1057C20.8482 27.1673 20.8638 27.228 20.8785 27.2905L22.4344 27.6964V29.2582Z" fill="white"/>
<path d="M18.8805 27.0608V25.1166C18.8805 25.0892 18.8766 25.0628 18.8688 25.0374C18.8346 24.9249 18.7319 24.8438 18.6086 24.8438H17.3911C17.2405 24.8438 17.1192 24.965 17.1192 25.1156V25.3122C16.9784 25.2496 16.8317 25.1968 16.6821 25.1547C16.6508 25.1459 16.6185 25.1371 16.5882 25.1283C16.5882 25.1283 16.5872 25.1283 16.5862 25.1283C16.3124 25.0569 16.0249 25.0208 15.7295 25.0208C13.8509 25.0208 12.3223 26.52 12.2744 28.3869C12.2734 28.4113 12.2734 28.4358 12.2734 28.4602C12.2734 28.4906 12.2734 28.5199 12.2744 28.5492C12.2832 29.001 12.3791 29.4304 12.5463 29.8235C12.5746 29.891 12.605 29.9565 12.6372 30.022C12.9551 30.6587 13.4646 31.1819 14.0895 31.5183C14.1179 31.534 14.1472 31.5486 14.1756 31.5633C14.1883 31.5701 14.201 31.577 14.2147 31.5819C14.243 31.5956 14.2724 31.6102 14.3007 31.6229C14.3301 31.6366 14.3594 31.6494 14.3878 31.6621C14.4465 31.6875 14.5051 31.711 14.5658 31.7325C14.5961 31.7432 14.6274 31.754 14.6577 31.7638C14.6724 31.7687 14.687 31.7736 14.7017 31.7775C14.7428 31.7902 14.7839 31.8019 14.824 31.8137C14.8386 31.8176 14.8533 31.8215 14.8689 31.8254C14.909 31.8361 14.9481 31.8459 14.9892 31.8547L15.0763 31.8723C15.132 31.8831 15.1877 31.8919 15.2445 31.8997C15.2719 31.9046 15.2992 31.9075 15.3247 31.9105C15.3501 31.9134 15.3755 31.9163 15.4 31.9183C15.4254 31.9212 15.4518 31.9232 15.4772 31.9251C15.4939 31.9261 15.5095 31.9271 15.5251 31.9281C15.5926 31.932 15.6591 31.9339 15.7276 31.9339C15.7735 31.9339 15.8185 31.933 15.8645 31.931C15.9046 31.93 15.9437 31.9271 15.9828 31.9242C15.9975 31.9232 16.0112 31.9222 16.0259 31.9202C16.0581 31.9183 16.0914 31.9154 16.1227 31.9114C16.1716 31.9056 16.2195 31.8987 16.2674 31.8919C16.3104 31.885 16.3535 31.8772 16.3965 31.8684C16.3965 31.8684 16.3965 31.8684 16.3975 31.8684C16.4405 31.8596 16.4826 31.8508 16.5246 31.8401C16.5628 31.8313 16.5999 31.8215 16.6381 31.8117C16.6429 31.8097 16.6469 31.8088 16.6517 31.8078C16.6938 31.7951 16.7359 31.7833 16.7769 31.7696C16.818 31.7569 16.8591 31.7432 16.8992 31.7276C16.9344 31.7149 16.9686 31.7022 17.0019 31.6885C17.0097 31.6855 17.0165 31.6826 17.0244 31.6797C17.0703 31.6611 17.1143 31.6415 17.1593 31.621C17.1984 31.6034 17.2375 31.5848 17.2747 31.5643C17.304 31.5506 17.3334 31.5349 17.3608 31.5193C17.3696 31.5154 17.3774 31.5105 17.3862 31.5056C17.4175 31.489 17.4478 31.4714 17.4771 31.4528C17.5515 31.4098 17.6238 31.3638 17.6952 31.3139C17.837 31.2171 17.971 31.1076 18.0962 30.9892C18.2908 30.8064 18.4629 30.6 18.6106 30.377C18.9705 29.8313 19.1798 29.179 19.1798 28.4759C19.1837 27.9722 19.0761 27.493 18.8805 27.0608ZM14.0895 31.1809C14.0357 31.1486 13.9839 31.1144 13.9321 31.0792C13.8548 31.0254 13.7785 30.9687 13.7052 30.9061C13.6572 30.866 13.6113 30.8259 13.5653 30.7829C13.5418 30.7604 13.5184 30.7379 13.4959 30.7154L13.4929 30.7125C13.4763 30.6958 13.4607 30.6792 13.445 30.6626C13.445 30.6616 13.445 30.6616 13.4441 30.6606C13.1996 30.4073 13.004 30.1179 12.8592 29.8088V29.2778H14.0885V31.1809H14.0895ZM15.5975 31.6357C15.1662 31.619 14.7486 31.5154 14.3682 31.3335V28.5815H15.5975V31.6357ZM17.1065 31.3247C16.7241 31.5095 16.3085 31.6161 15.8772 31.6357V27.006H17.1065V31.3247ZM18.6145 29.7717C18.5969 29.8108 18.5793 29.8489 18.5597 29.8861C18.5558 29.8939 18.5509 29.9027 18.547 29.9105C18.5294 29.9458 18.5108 29.981 18.4903 30.0152C18.4619 30.068 18.4307 30.1189 18.3984 30.1697C18.3593 30.2313 18.3192 30.291 18.2752 30.3496C18.2556 30.3751 18.237 30.4015 18.2175 30.4259C18.2165 30.4269 18.2165 30.4269 18.2155 30.4279C18.2077 30.4377 18.1999 30.4465 18.193 30.4562C18.1911 30.4592 18.1881 30.4621 18.1852 30.465C18.1686 30.4866 18.15 30.5081 18.1324 30.5286C18.0796 30.5922 18.0238 30.6538 17.9642 30.7134C17.8654 30.8112 17.7617 30.9022 17.6532 30.9853C17.6395 30.9961 17.6248 31.0068 17.6111 31.0166C17.5867 31.0352 17.5613 31.0538 17.5368 31.0704C17.4859 31.1056 17.4351 31.1398 17.3833 31.1711V25.1225H18.6126V29.7717H18.6145Z" fill="white"/>
<path d="M14.1299 5.23C14.1114 5.23195 14.0928 5.23391 14.0742 5.23684C13.905 5.2564 13.7368 5.28085 13.5705 5.30823C13.504 5.31997 13.4395 5.3317 13.374 5.34442L13.1089 4.68821L12.9789 4.36548C12.9623 4.36646 12.9446 4.36646 12.927 4.36646C12.4889 4.36451 12.0713 4.10143 11.8982 3.66918C11.7202 3.23007 11.8425 2.74403 12.1691 2.43891C12.2659 2.34698 12.3833 2.27168 12.5143 2.21789C12.6493 2.16312 12.7901 2.13672 12.927 2.13672C12.9896 2.13672 13.0503 2.14259 13.1089 2.15237C13.4815 2.213 13.8141 2.46042 13.9647 2.83596C14.1123 3.20074 14.0517 3.59681 13.8405 3.89509C13.8326 3.90682 13.8238 3.91856 13.815 3.92931C13.772 3.98701 13.7231 4.03885 13.6683 4.08677L14.1104 5.18208L14.1299 5.23Z" fill="white"/>
<path d="M23.7558 12.2664C23.4771 10.8542 22.7436 8.75848 20.8249 7.34533C20.7652 7.30133 20.7056 7.2583 20.643 7.21624C20.3144 6.98936 19.9525 6.78496 19.5565 6.60404C18.1443 5.9625 16.5571 5.73268 14.9943 5.81483C14.2237 5.85493 13.4579 5.9713 12.7215 6.15027C11.9568 6.33804 11.2008 6.64805 10.5368 7.07346C10.4742 7.11356 10.4145 7.15268 10.3549 7.19375C8.09676 8.72816 7.51389 11.1887 7.37502 12.6263C7.28896 13.529 7.55986 14.4287 8.13881 15.1269C8.59747 15.6805 9.3016 16.3112 10.3549 16.8227C10.4145 16.853 10.4751 16.8804 10.5368 16.9078C11.1969 17.2071 11.9861 17.4603 12.9279 17.6207C12.9885 17.6315 13.0482 17.6422 13.1098 17.652C13.1782 17.6618 13.2467 17.6735 13.3171 17.6823C13.9322 17.7664 14.6109 17.8153 15.3552 17.8153H15.3591C15.406 17.8153 15.4529 17.8153 15.4999 17.8144C15.5615 17.8144 15.6212 17.8134 15.6818 17.8124C16.5659 17.7968 17.3609 17.7185 18.0719 17.5894C18.112 17.5826 18.1492 17.5757 18.1873 17.5679C18.2088 17.564 18.2313 17.5601 18.2538 17.5552C18.3291 17.5425 18.4025 17.5259 18.4758 17.5092C19.3169 17.3332 20.0337 17.0887 20.6439 16.809C20.7056 16.7797 20.7662 16.7523 20.8258 16.723C21.2796 16.5029 21.6708 16.2643 22.0082 16.0208C22.3446 15.7783 22.6272 15.5308 22.8639 15.2942C23.4927 14.6585 23.8262 13.7998 23.8223 12.9207C23.8203 12.7045 23.7979 12.4855 23.7558 12.2664ZM10.5368 16.2907C10.4751 16.2604 10.4155 16.2291 10.3549 16.1978V14.549H10.1632C10.0732 14.549 10.0008 14.4766 10.0008 14.3866V12.0395C10.0008 11.9505 10.0732 11.8762 10.1632 11.8762H10.3549V7.88517C10.4145 7.83822 10.4742 7.79324 10.5368 7.74825V11.8762H10.7304C10.8194 11.8762 10.8927 11.9505 10.8927 12.0395V14.3866C10.8927 14.4766 10.8194 14.549 10.7304 14.549H10.5368V16.2907ZM13.4648 14.2448C13.4648 14.3348 13.3914 14.4072 13.3014 14.4072H13.1098V17.0897C13.0834 17.0848 13.056 17.0799 13.0305 17.075H13.0266L13.0237 17.0731C12.9905 17.0682 12.9592 17.0623 12.9288 17.0555V14.4072H12.7362C12.6472 14.4072 12.5729 14.3348 12.5729 14.2448V9.02938C12.5729 8.94038 12.6472 8.86704 12.7362 8.86704H12.9288V6.67543C12.9709 6.66468 13.011 6.65392 13.054 6.64316C13.0726 6.64023 13.0922 6.63534 13.1107 6.63142V8.86704H13.3024C13.3924 8.86704 13.4657 8.94038 13.4657 9.02938V14.2448H13.4648ZM16.0368 13.6375C16.0368 13.7128 15.9752 13.7734 15.9018 13.7734H15.6818V17.2579H15.6701C15.6133 17.2589 15.5576 17.2599 15.4999 17.2599V13.7734H15.2808C15.2055 13.7734 15.1449 13.7118 15.1449 13.6375V10.6499C15.1449 10.5745 15.2055 10.5139 15.2808 10.5139H15.4999V6.38107H15.5664C15.6006 6.38107 15.6339 6.38107 15.6671 6.38205H15.6818V10.5139H15.9018C15.9762 10.5139 16.0368 10.5755 16.0368 10.6499V13.6375ZM18.6078 13.9387C18.6078 14.0267 18.5345 14.1011 18.4455 14.1011H18.2528V16.9919C18.2186 16.9978 18.1863 17.0046 18.155 17.0105L18.1443 17.0124C18.1306 17.0154 18.1169 17.0183 18.1042 17.0203L18.0885 17.0232L18.0739 17.0252C18.0729 17.0252 18.0729 17.0261 18.0709 17.0261V14.102H17.8783C17.7893 14.102 17.7159 14.0277 17.7159 13.9397V9.90465C17.7159 9.81565 17.7893 9.74133 17.8783 9.74133H18.0709V6.67641C18.0827 6.68032 18.0925 6.68228 18.1042 6.68619L18.1091 6.68717L18.114 6.68815C18.1609 6.70086 18.2059 6.71357 18.2528 6.72727V9.74133H18.4455C18.5345 9.74133 18.6078 9.81565 18.6078 9.90465V13.9387ZM21.1808 11.6288C21.1808 11.7188 21.1065 11.7911 21.0175 11.7911H20.8249V16.1C20.7652 16.1313 20.7046 16.1636 20.643 16.1929V11.7911H20.4513C20.3613 11.7911 20.288 11.7188 20.288 11.6288V9.3697C20.288 9.27973 20.3613 9.20638 20.4513 9.20638H20.643V7.91059C20.7046 7.95949 20.7662 8.00545 20.8249 8.05533V9.20638H21.0175C21.1065 9.20638 21.1808 9.27973 21.1808 9.3697V11.6288Z" fill="white"/>
<path d="M18.3152 3.66918C18.2966 3.71319 18.277 3.75426 18.2536 3.79533C18.2027 3.88531 18.1421 3.9655 18.0717 4.03493C18.0443 4.06232 18.0159 4.08774 17.9885 4.11317C17.9778 4.12099 17.967 4.12686 17.9572 4.13468C17.9367 4.15131 17.9162 4.165 17.8966 4.17967C17.8839 4.18749 17.8702 4.19434 17.8565 4.20216C17.8379 4.21488 17.8184 4.22759 17.7988 4.23737C17.7841 4.24519 17.7695 4.25106 17.7548 4.25693C17.7362 4.26769 17.7157 4.27649 17.6951 4.28431C17.6795 4.29116 17.6639 4.29703 17.6482 4.30094C17.6296 4.30876 17.6091 4.31561 17.5885 4.32148C17.5719 4.32734 17.5553 4.33028 17.5397 4.33517C17.5191 4.33908 17.4996 4.34397 17.478 4.34788C17.4614 4.35081 17.4438 4.35277 17.4272 4.3557C17.4057 4.35864 17.3861 4.36059 17.3656 4.36255C17.348 4.36353 17.3313 4.36548 17.3128 4.36548C17.301 4.36646 17.2883 4.36744 17.2746 4.36744C17.259 4.36744 17.2433 4.36744 17.2277 4.36646L16.8766 5.23586C16.6908 5.21631 16.5089 5.20164 16.328 5.19088C16.2507 5.18501 16.1744 5.1811 16.0981 5.17719L16.5372 4.08677C16.193 3.7836 16.059 3.28582 16.2409 2.83596C16.2605 2.78804 16.2849 2.74305 16.3094 2.69807C16.3162 2.68829 16.3221 2.67655 16.3289 2.66677C16.3544 2.62472 16.3827 2.58365 16.413 2.5455C16.415 2.54355 16.4179 2.54159 16.4199 2.53866C16.4502 2.5015 16.4825 2.46922 16.5157 2.43891C16.5245 2.43011 16.5333 2.42228 16.5412 2.41446C16.5783 2.38316 16.6165 2.35285 16.6556 2.32644C16.6585 2.32449 16.6644 2.32253 16.6693 2.31862C16.7064 2.29515 16.7446 2.27363 16.7827 2.25407C16.7925 2.24918 16.8023 2.24332 16.814 2.2394C16.858 2.21887 16.9001 2.20224 16.946 2.18757C16.9529 2.18562 16.9597 2.18464 16.9666 2.1817C17.0076 2.17095 17.0487 2.16215 17.0908 2.15432C17.1025 2.15237 17.1123 2.15041 17.124 2.14845C17.1719 2.14259 17.2189 2.13868 17.2678 2.13868C17.2697 2.13868 17.2717 2.13672 17.2756 2.13672C17.2922 2.13672 17.3089 2.13965 17.3255 2.14063C17.3411 2.14063 17.3568 2.14063 17.3724 2.14161C17.3939 2.14356 17.4154 2.14748 17.437 2.15041C17.4516 2.15237 17.4663 2.15432 17.48 2.15726C17.5044 2.16215 17.5279 2.16704 17.5514 2.17388C17.5631 2.17682 17.5758 2.17877 17.5866 2.1817C17.611 2.18953 17.6365 2.19735 17.6599 2.20615C17.6717 2.21007 17.6824 2.21398 17.6932 2.21887C17.8399 2.27852 17.966 2.36458 18.0687 2.46922C18.1421 2.54257 18.2017 2.62276 18.2506 2.7098C18.411 2.99439 18.4452 3.3445 18.3152 3.66918Z" fill="white"/>
<path d="M16.2205 1.39319C16.2205 1.76775 16.0376 2.09732 15.754 2.2978C15.7344 2.31149 15.7139 2.32518 15.6924 2.3379C15.6885 2.34083 15.6845 2.34376 15.6806 2.34572C15.6229 2.37995 15.5623 2.41026 15.4987 2.43276C15.4919 2.43667 15.4841 2.4396 15.4762 2.44254V5.15832C15.4626 5.15832 15.4489 5.15735 15.4352 5.15735C15.2728 5.15735 15.1105 5.16126 14.9501 5.1681C14.8768 5.17104 14.8054 5.17495 14.733 5.17886V2.44254C14.3007 2.289 13.9897 1.87826 13.9897 1.39319C13.9897 0.999073 14.1951 0.652876 14.5042 0.455329C14.6773 0.343842 14.8836 0.279297 15.1046 0.279297C15.2425 0.279297 15.3755 0.304724 15.4978 0.351666C15.5613 0.375137 15.622 0.404475 15.6797 0.439682C16.0034 0.633317 16.2205 0.987338 16.2205 1.39319Z" fill="white"/>
<path opacity="0.2" d="M18.6646 34.2146C18.1688 34.5403 17.6338 34.7926 17.0588 34.9588L16.9708 35.3002C16.915 35.5094 16.7283 35.6561 16.5111 35.6561H14.9474C14.7313 35.6561 14.5435 35.5094 14.4887 35.3002L14.4281 35.0694C13.6027 34.8796 12.8722 34.463 12.2365 33.9105L11.7798 34.1775C11.7045 34.2224 11.6223 34.244 11.5412 34.244C11.417 34.244 11.2957 34.196 11.2038 34.1051L10.1006 33.001C9.94808 32.8484 9.91678 32.6108 10.0263 32.425L10.4644 31.6778C10.1339 31.1067 9.84735 30.5091 9.59406 29.8979L8.90558 29.717C8.69531 29.6622 8.55058 29.4735 8.55058 29.2574V27.6936C8.55058 27.5469 8.61903 27.4139 8.72759 27.3249C8.62099 26.9318 8.52124 26.5386 8.42931 26.1465C8.22785 25.2908 8.06062 24.4292 7.92566 23.5617C7.75061 22.4537 7.75256 21.3936 8.14864 20.4861C8.39997 19.9061 8.81169 19.3868 9.44052 18.9565C9.67425 18.7971 9.91776 18.6573 10.1691 18.5301C10.3246 18.4519 10.9143 18.0871 11.0757 18.1448C11.2106 18.1957 11.3514 18.2407 11.4972 18.2857C11.505 18.2876 11.5128 18.2915 11.5206 18.2935C11.8072 18.3795 12.1103 18.4568 12.4301 18.5253C12.4448 18.5292 12.4565 18.5311 12.4712 18.535C12.4829 18.537 12.4937 18.5389 12.5064 18.5409C12.4282 18.5888 12.3509 18.6367 12.2746 18.6866C11.6175 19.112 11.0209 19.6118 10.6121 20.2914C9.71924 21.774 9.53245 23.6302 9.75053 25.3162C9.8405 26.0105 9.97742 26.7088 10.1681 27.3953L9.02489 27.6936V29.2574L10.5798 29.6642C10.706 30.2099 10.9153 30.7214 11.196 31.1888C11.2145 31.2172 11.2321 31.2465 11.2497 31.2749L10.4361 32.6636L11.5412 33.7677L12.9279 32.954C13.1215 33.0753 13.322 33.1839 13.5323 33.2797C13.8521 33.4264 14.1914 33.5428 14.5435 33.623L14.9474 35.1789H16.5111L16.915 33.623H16.918C17.0031 33.6034 17.0891 33.5819 17.1722 33.5584C17.2006 33.5594 17.227 33.5613 17.2544 33.5643C17.7571 33.6122 18.2783 33.7726 18.6118 34.1511C18.6304 34.1745 18.647 34.1931 18.6646 34.2146Z" fill="white"/>
<path opacity="0.2" d="M15.7158 2.31417C15.709 2.31809 15.7012 2.32102 15.6933 2.32395V2.33862C15.7149 2.32591 15.7354 2.31222 15.755 2.29853C15.7413 2.30439 15.7276 2.30928 15.7158 2.31417ZM14.2078 1.23842C14.2078 0.935255 14.3193 0.661427 14.5051 0.455078C14.1961 0.652625 13.9907 0.998822 13.9907 1.39294C13.9907 1.87801 14.3017 2.28875 14.734 2.44229V5.17861C14.8063 5.1747 14.8777 5.17079 14.9511 5.16785V2.32395C14.5188 2.16552 14.2078 1.74011 14.2078 1.23842Z" fill="white"/>
<path opacity="0.2" d="M14.1114 5.18164C14.0986 5.19827 14.0869 5.21783 14.0752 5.23739C14.0937 5.23445 14.1123 5.2325 14.1309 5.23054L14.1114 5.18164ZM13.8131 3.92106L13.816 3.92888C13.8248 3.91812 13.8336 3.90639 13.8414 3.89465C13.8326 3.90443 13.8229 3.91323 13.8131 3.92106ZM13.2537 4.52348L13.1236 4.20075C13.107 4.20173 13.0894 4.20173 13.0728 4.20173C12.6337 4.19978 12.2161 3.93671 12.043 3.50445C11.8953 3.13674 11.9559 2.73871 12.1701 2.43945C11.8435 2.74458 11.7212 3.23062 11.8992 3.66972C12.0733 4.101 12.4899 4.36505 12.928 4.36701C12.9456 4.36701 12.9632 4.36701 12.9799 4.36603L13.1099 4.68875L13.3749 5.34496C13.4405 5.33225 13.505 5.32051 13.5715 5.30878L13.2537 4.52348Z" fill="white"/>
<path opacity="0.2" d="M17.5915 2.17975C17.5807 2.17682 17.568 2.17486 17.5563 2.17193C17.5328 2.16508 17.5093 2.16019 17.4849 2.1553C17.4712 2.15237 17.4565 2.15041 17.4419 2.14846C17.4203 2.14552 17.3988 2.14161 17.3773 2.13965C17.3617 2.13868 17.346 2.13868 17.3304 2.13868C17.3137 2.1377 17.2971 2.13477 17.2805 2.13477C17.2766 2.13477 17.2746 2.13672 17.2727 2.13672C17.2238 2.13672 17.1768 2.14063 17.1289 2.1465C17.1172 2.14846 17.1074 2.15041 17.0957 2.15237C17.0536 2.16019 17.0125 2.16899 16.9715 2.17975C16.9646 2.18269 16.9578 2.18366 16.9509 2.18562C16.905 2.20029 16.8629 2.21691 16.8189 2.23745C16.8072 2.24136 16.7974 2.24723 16.7876 2.25212C16.7485 2.27168 16.7103 2.29319 16.6742 2.31666C16.6693 2.32058 16.6634 2.32253 16.6605 2.32449C16.6204 2.35187 16.5832 2.38219 16.546 2.41251C16.5382 2.42033 16.5294 2.42815 16.5206 2.43695C16.4864 2.46825 16.4541 2.50052 16.4248 2.53671C16.4228 2.53964 16.4199 2.5416 16.4179 2.54355C16.3866 2.58169 16.3583 2.62374 16.3338 2.66482C16.327 2.6746 16.3211 2.68633 16.3143 2.69611C16.2898 2.7411 16.2654 2.78608 16.2458 2.834C16.0639 3.28386 16.1979 3.78164 16.5421 4.08481L16.103 5.17523C16.1783 5.17915 16.2556 5.18306 16.3328 5.18893L16.7553 4.13958C16.4111 3.83641 16.2771 3.33765 16.459 2.88877C16.4786 2.84085 16.503 2.79586 16.5275 2.75088C16.5343 2.74012 16.5402 2.72936 16.547 2.71958C16.5724 2.67655 16.6008 2.63646 16.6311 2.59832C16.6331 2.59538 16.635 2.59343 16.638 2.59147C16.6683 2.55431 16.7006 2.52204 16.7328 2.49172C16.7416 2.48194 16.7514 2.47412 16.7592 2.46629C16.7964 2.435 16.8345 2.40468 16.8737 2.37925C16.8766 2.3773 16.8825 2.37436 16.8873 2.37143C16.9235 2.34796 16.9617 2.32645 17.0008 2.30591C17.0106 2.302 17.0204 2.29613 17.0321 2.29124C17.0751 2.27168 17.1181 2.25505 17.1641 2.24038C17.171 2.23745 17.1778 2.23647 17.1846 2.23452C17.2257 2.22278 17.2668 2.21398 17.3088 2.20616C17.3206 2.20518 17.3304 2.20322 17.3411 2.20029C17.39 2.1954 17.437 2.19051 17.4849 2.19051C17.4878 2.19051 17.4898 2.18953 17.4927 2.18953C17.5103 2.18953 17.5269 2.19149 17.5436 2.19246C17.5592 2.19246 17.5749 2.19246 17.5905 2.19442C17.612 2.19638 17.6335 2.19931 17.6541 2.20322C17.657 2.20322 17.6609 2.2042 17.6638 2.2042C17.6404 2.1954 17.6149 2.18758 17.5915 2.17975Z" fill="white"/>
<path opacity="0.2" d="M18.6145 29.7724V30.3778C18.4668 30.6017 18.2947 30.8071 18.1001 30.99C17.9749 31.1083 17.8409 31.2178 17.6991 31.3146C17.6277 31.3645 17.5554 31.4105 17.4811 31.4535C17.4507 31.4721 17.4204 31.4897 17.3901 31.5063C17.3813 31.5112 17.3735 31.5161 17.3647 31.52C17.3363 31.5357 17.307 31.5513 17.2786 31.565C17.2405 31.5855 17.2023 31.6041 17.1632 31.6217C17.1182 31.6423 17.0742 31.6618 17.0283 31.6804C17.0204 31.6833 17.0136 31.6863 17.0058 31.6892C16.9715 31.7029 16.9373 31.7156 16.9031 31.7283C16.862 31.744 16.8209 31.7577 16.7808 31.7704C16.7388 31.7841 16.6977 31.7958 16.6557 31.8085C16.6508 31.8095 16.6469 31.8105 16.642 31.8124C16.6038 31.8222 16.5657 31.832 16.5285 31.8408C16.4865 31.8515 16.4444 31.8603 16.4014 31.8691C16.4004 31.8691 16.4004 31.8691 16.4004 31.8691C16.3574 31.8779 16.3143 31.8858 16.2713 31.8926C16.2234 31.8995 16.1755 31.9063 16.1266 31.9122C16.0943 31.9161 16.0611 31.919 16.0298 31.921C16.0151 31.9229 16.0014 31.9239 15.9867 31.9249C15.9466 31.9278 15.9075 31.9308 15.8684 31.9317C15.8224 31.9337 15.7775 31.9347 15.7315 31.9347C15.663 31.9347 15.5965 31.9327 15.5291 31.9288C15.5134 31.9278 15.4978 31.9268 15.4811 31.9259C15.4557 31.9239 15.4293 31.9219 15.4039 31.919C15.3784 31.9171 15.353 31.9141 15.3286 31.9112C15.3022 31.9083 15.2748 31.9053 15.2484 31.9004C15.1917 31.8926 15.1359 31.8838 15.0802 31.8731L14.9931 31.8554C14.9521 31.8466 14.9129 31.8369 14.8728 31.8261C14.8572 31.8222 14.8425 31.8183 14.8279 31.8144C14.7868 31.8026 14.7467 31.7909 14.7056 31.7782C14.6909 31.7743 14.6763 31.7694 14.6616 31.7645C14.6303 31.7547 14.599 31.744 14.5697 31.7332C14.509 31.7117 14.4504 31.6882 14.3917 31.6628C14.3623 31.6501 14.333 31.6374 14.3046 31.6237C14.2753 31.611 14.246 31.5963 14.2186 31.5826C14.2049 31.5777 14.1922 31.5709 14.1795 31.564C14.1501 31.5493 14.1208 31.5347 14.0934 31.519C13.4685 31.1816 12.959 30.6584 12.6411 30.0228C12.6079 29.9572 12.5776 29.8917 12.5502 29.8242L12.5541 29.8174C12.5531 29.8145 12.5512 29.8105 12.5502 29.8076C12.3849 29.4194 12.2901 28.9949 12.2783 28.55C12.2773 28.5196 12.2773 28.4903 12.2773 28.461C12.2773 28.4365 12.2773 28.4121 12.2783 28.3876C12.3262 26.5217 13.8548 25.0215 15.7334 25.0215C16.0278 25.0215 16.3153 25.0586 16.5901 25.1291C16.4972 25.1212 16.4014 25.1173 16.3065 25.1173C14.3731 25.1173 12.8054 26.685 12.8054 28.6194C12.8054 28.8394 12.826 29.0536 12.8651 29.2629C12.8651 29.2639 12.8651 29.2639 12.8651 29.2648V29.8105C13.0098 30.1196 13.2054 30.4081 13.4499 30.6623C13.4509 30.6633 13.4509 30.6633 13.4509 30.6643C13.4665 30.6809 13.4822 30.6975 13.4988 30.7142L13.5017 30.7171C13.5242 30.7396 13.5477 30.7621 13.5712 30.7846C13.6171 30.8276 13.6631 30.8677 13.711 30.9078C13.7844 30.9704 13.8597 31.0271 13.9379 31.0809C13.9897 31.1171 14.0416 31.1513 14.0954 31.1826V28.9675L14.3741 28.5822V31.3342C14.7555 31.5161 15.1721 31.6198 15.6034 31.6364V27.4126L15.8831 27.0077V31.6374C16.3143 31.6178 16.731 31.5112 17.1124 31.3264V25.7999L17.3236 25.2865L17.3295 25.2718L17.3911 25.1242V31.1728C17.4429 31.1406 17.4938 31.1063 17.5446 31.0721C17.5691 31.0555 17.5945 31.0369 17.6189 31.0183C17.6326 31.0085 17.6473 30.9978 17.661 30.987C17.7695 30.9039 17.8732 30.8129 17.972 30.7151C18.0316 30.6555 18.0874 30.5939 18.1402 30.5303C18.1578 30.5098 18.1764 30.4883 18.193 30.4668C18.1959 30.4638 18.1989 30.4609 18.2008 30.4579C18.2077 30.4482 18.2155 30.4394 18.2233 30.4296C18.2243 30.4286 18.2243 30.4286 18.2253 30.4276C18.2448 30.4032 18.2634 30.3768 18.283 30.3513C18.327 30.2927 18.3671 30.233 18.4062 30.1714C18.4394 30.1206 18.4707 30.0697 18.4981 30.0169C18.5187 29.9817 18.5372 29.9465 18.5548 29.9122C18.5588 29.9044 18.5637 29.8956 18.5676 29.8878C18.5793 29.8497 18.5969 29.8115 18.6145 29.7724Z" fill="white"/>
<path opacity="0.2" d="M17.2462 23.4154C17.1386 23.3822 17.0281 23.3528 16.9176 23.3284H16.9146L16.5107 21.7734L17.2462 23.4154Z" fill="white"/>
<path opacity="0.2" d="M21.0192 24.293C20.9752 24.3869 20.675 25.2758 20.4188 26.0425C20.3532 25.9174 20.2838 25.7951 20.2085 25.6758L21.0192 24.293Z" fill="white"/>
<path opacity="0.2" d="M22.4247 29.2617C22.3015 29.3067 21.4536 29.7262 20.7681 30.0695C20.7915 29.9971 20.813 29.9248 20.8326 29.8505C20.8492 29.7888 20.8649 29.7272 20.8796 29.6656L22.4247 29.2617Z" fill="white"/>
<path opacity="0.2" d="M13.3473 23.7596C13.2026 23.832 13.0637 23.9112 12.9268 23.9963L11.54 23.1836L13.3473 23.7596Z" fill="white"/>
<path opacity="0.2" d="M26.018 27.3023C27.4526 31.4469 25.749 35.967 21.9487 38.1596C19.5116 39.6148 16.5347 39.9795 13.7642 39.5062C9.17753 38.718 4.98014 35.6765 2.95186 31.4674C1.88295 29.2553 1.43798 26.6842 1.95826 24.2648C2.22328 23.0394 2.72595 21.8658 3.47018 20.8556C4.36012 19.6077 5.61092 18.619 7.01723 18.0293C6.1576 18.5202 5.37524 19.1481 4.71903 19.8894C2.69857 22.1612 2.08735 25.318 2.79343 28.2392C4.20951 34.1969 10.1213 38.5723 16.1748 38.6554C22.6225 38.7356 27.3538 33.8077 26.018 27.3023Z" fill="white"/>
<path opacity="0.2" d="M10.5368 14.7412V16.2913C10.4751 16.261 10.4155 16.2297 10.3549 16.1984V14.5496H10.1632C10.0732 14.5496 10.0008 14.4772 10.0008 14.3872V12.9907C9.95683 12.6993 9.93434 12.4029 9.93434 12.1017C9.93434 11.3213 10.083 10.5742 10.3539 9.87884V7.88674C10.4135 7.8398 10.4732 7.79481 10.5358 7.74983V9.46223C11.0561 8.37572 11.8863 7.44177 12.9269 6.7572V6.67701C12.9689 6.66625 13.009 6.65549 13.0521 6.64474C13.0706 6.6418 13.0902 6.63691 13.1088 6.633V6.6418C13.6838 6.2868 14.3166 6.00711 14.9933 5.81641C14.2227 5.8565 13.4569 5.97288 12.7205 6.15185C11.9558 6.33961 11.1998 6.64963 10.5358 7.07504C10.4732 7.11513 10.4135 7.15425 10.3539 7.19533C8.09578 8.72974 7.51292 11.1903 7.37405 12.6279C7.28799 13.5305 7.55888 14.4303 8.13783 15.1285C8.59649 15.682 9.30062 16.3128 10.3539 16.8243C10.4135 16.8546 10.4742 16.882 10.5358 16.9094C11.1959 17.2086 11.9851 17.4619 12.9269 17.6223C12.9875 17.6331 13.0472 17.6438 13.1088 17.6536C13.1772 17.6634 13.2457 17.6751 13.3161 17.6839C12.0966 16.9866 11.1206 15.9608 10.5368 14.7412Z" fill="white"/>
<path d="M51.7564 15.594C51.7564 15.9048 51.6458 16.2073 51.4247 16.5036C51.1889 16.8144 50.8843 16.9688 50.5151 16.9688C50.2626 16.9688 50.0123 16.9021 49.7619 16.7685C49.038 16.4285 48.2535 16.2595 47.4107 16.2595C46.3759 16.2595 45.4746 16.4785 44.7048 16.9146C43.9349 17.3506 43.3445 17.964 42.9314 18.7547C42.5184 19.5454 42.3097 20.4508 42.3097 21.471C42.3097 23.2151 42.7791 24.5378 43.718 25.4391C44.6568 26.3404 45.8877 26.791 47.4107 26.791C48.312 26.791 49.0964 26.622 49.7619 26.282C50.029 26.163 50.2647 26.1046 50.4713 26.1046C50.8551 26.1046 51.1806 26.2674 51.4476 26.5928C51.6688 26.8745 51.7793 27.177 51.7793 27.5024C51.7793 27.7382 51.7209 27.9531 51.602 28.145C51.4831 28.3369 51.3141 28.4851 51.093 28.5894C49.9393 29.1652 48.7125 29.4552 47.4128 29.4552C45.9649 29.4552 44.6338 29.1485 43.4217 28.5351C42.2096 27.9218 41.2416 27.0163 40.5176 25.8188C39.7937 24.6213 39.4307 23.1734 39.4307 21.4731C39.4307 19.9647 39.7749 18.6128 40.4613 17.4153C41.1477 16.2177 42.099 15.2831 43.3111 14.6113C44.5233 13.9395 45.8898 13.6016 47.4128 13.6016C48.7292 13.6016 49.9476 13.8895 51.0721 14.4674C51.5269 14.701 51.7564 15.0766 51.7564 15.594Z" fill="white"/>
<path d="M65.3383 22.0458C65.8328 22.6821 66.0811 23.502 66.0811 24.5076C66.0811 26.2663 65.5783 27.493 64.5727 28.1878C63.5671 28.8825 62.3696 29.2309 60.9801 29.2309H55.4598C55.0759 29.2309 54.7547 29.1016 54.496 28.8429C54.2373 28.5842 54.1079 28.2629 54.1079 27.879V15.0609C54.1079 14.677 54.2373 14.3557 54.496 14.097C54.7547 13.8383 55.0759 13.709 55.4598 13.709H61.0469C63.855 13.709 65.2591 15.0254 65.2591 17.6562C65.2591 18.3218 65.1005 18.9101 64.7813 19.4191C64.4642 19.9282 64.0094 20.3329 63.4169 20.6271C64.2034 20.9379 64.8439 21.4115 65.3383 22.0458ZM61.9231 16.78C61.6206 16.4775 61.195 16.3252 60.6484 16.3252H56.9891V19.7842H60.7152C61.1595 19.7842 61.5476 19.6361 61.8793 19.3398C62.211 19.0436 62.3779 18.6451 62.3779 18.1423C62.3779 17.5373 62.2277 17.0825 61.9231 16.78ZM62.6116 26.1265C63.0038 25.7572 63.1999 25.2169 63.1999 24.5076C63.1999 23.6355 62.9704 23.0659 62.5135 22.801C62.0545 22.5339 61.4933 22.4025 60.8278 22.4025H56.9911V26.6815H60.9822C61.6769 26.6794 62.2194 26.4958 62.6116 26.1265Z" fill="white"/>
<path d="M75.7485 14.2752C76.5475 14.8447 77.1609 15.5916 77.5886 16.5137C78.0163 17.438 78.2312 18.4248 78.2312 19.4742C78.2312 20.5528 78.0434 21.7399 77.6658 23.0334C77.2882 24.3269 76.6018 25.5494 75.6045 26.7031C74.6073 27.8568 73.2512 28.6768 71.5363 29.1649C71.359 29.2088 71.1879 29.2317 71.0272 29.2317C70.6434 29.2317 70.3242 29.1316 70.0738 28.9313C69.8214 28.731 69.6962 28.418 69.6962 27.9883C69.6962 27.6628 69.8026 27.3791 70.0175 27.135C70.2324 26.8909 70.5161 26.7177 70.8708 26.6134C71.8012 26.3464 72.6629 25.8749 73.4536 25.1947C74.2443 24.5146 74.8243 23.701 75.1935 22.7559C74.455 23.3922 73.6121 23.7093 72.665 23.7093C71.8951 23.7093 71.1378 23.4757 70.393 23.0104C69.6461 22.5452 69.0369 21.9172 68.5633 21.1265C68.0898 20.3358 67.854 19.4825 67.854 18.5646C67.854 17.6341 68.0877 16.7724 68.5529 15.9817C69.0181 15.191 69.6419 14.5673 70.4264 14.1083C71.2087 13.6493 72.0745 13.4219 73.0217 13.4219C74.0419 13.4219 74.9515 13.7056 75.7485 14.2752ZM74.8055 20.4944C75.2853 19.977 75.5253 19.3344 75.5253 18.5646C75.5253 17.7968 75.2853 17.1521 74.8055 16.6347C74.3256 16.1174 73.731 15.8586 73.0196 15.8586C72.3249 15.8586 71.7345 16.1174 71.2463 16.6347C70.7581 17.1521 70.514 17.7947 70.514 18.5646C70.514 19.3344 70.7581 19.977 71.2463 20.4944C71.7345 21.0118 72.3249 21.2705 73.0196 21.2705C73.731 21.2705 74.3256 21.0118 74.8055 20.4944Z" fill="white"/>
<path d="M82.723 28.455C81.828 27.7894 81.1521 26.8548 80.6952 25.651C80.2362 24.4472 80.0088 23.0536 80.0088 21.4722C80.0088 19.8908 80.2383 18.4972 80.6952 17.2934C81.1542 16.0896 81.8301 15.1529 82.723 14.4894C83.6181 13.8239 84.6862 13.4922 85.9276 13.4922C87.1689 13.4922 88.2371 13.8239 89.1321 14.4894C90.0271 15.1549 90.7031 16.0896 91.1599 17.2934C91.6189 18.4993 91.8463 19.8908 91.8463 21.4722C91.8463 23.0536 91.6168 24.4472 91.1599 25.651C90.701 26.8569 90.025 27.7915 89.1321 28.455C88.2371 29.1205 87.1689 29.4522 85.9276 29.4522C84.6862 29.4522 83.616 29.1205 82.723 28.455ZM88.1557 25.4382C88.6961 24.5369 88.9652 23.2142 88.9652 21.4701C88.9652 19.726 88.6961 18.4033 88.1557 17.502C87.6154 16.6007 86.8726 16.1501 85.9276 16.1501C84.9804 16.1501 84.2377 16.6007 83.6994 17.502C83.1591 18.4033 82.8899 19.726 82.8899 21.4701C82.8899 23.2142 83.1591 24.5369 83.6994 25.4382C84.2398 26.3395 84.9825 26.7901 85.9276 26.7901C86.8726 26.7922 87.6154 26.3416 88.1557 25.4382Z" fill="white"/>
<path d="M94.8612 22.49C94.6025 22.2397 94.4731 21.9205 94.4731 21.5366C94.4731 21.1673 94.6025 20.8565 94.8612 20.6061C95.1199 20.3558 95.4412 20.2285 95.8251 20.2285H99.6826C100.066 20.2285 100.388 20.3579 100.646 20.6166C100.905 20.8753 101.034 21.1966 101.034 21.5804C101.034 21.9497 100.905 22.2564 100.646 22.5005C100.388 22.7446 100.066 22.8656 99.6826 22.8656H95.8251C95.4412 22.8656 95.1199 22.7404 94.8612 22.49Z" fill="url(#paint0_linear_341_15551)"/>
<path d="M112.367 14.3849C113.047 14.8356 113.594 15.4427 114.007 16.2042C114.42 16.9657 114.629 17.7981 114.629 18.6994C114.629 19.586 114.422 20.4143 114.007 21.182C113.594 21.9519 113.045 22.5611 112.367 23.0117C111.687 23.4623 110.969 23.6877 110.216 23.6877H106.359V27.879C106.359 28.2775 106.24 28.6029 106.004 28.8554C105.768 29.1078 105.457 29.233 105.073 29.233C104.704 29.233 104.402 29.1036 104.164 28.8449C103.928 28.5862 103.809 28.2649 103.809 27.8811V15.0609C103.809 14.677 103.938 14.3557 104.197 14.097C104.456 13.8383 104.777 13.709 105.161 13.709H110.216C110.971 13.709 111.687 13.9343 112.367 14.3849ZM111.048 20.8044C111.322 20.5687 111.543 20.262 111.714 19.8844C111.883 19.5068 111.969 19.1125 111.969 18.6973C111.969 18.2842 111.883 17.8878 111.714 17.5102C111.543 17.1326 111.322 16.8301 111.048 16.6006C110.775 16.3711 110.498 16.2563 110.216 16.2563H106.359V21.157H110.216C110.498 21.1591 110.775 21.0402 111.048 20.8044Z" fill="white"/>
<path d="M129.806 27.5222C129.917 27.7142 129.973 27.9145 129.973 28.121C129.973 28.388 129.883 28.6301 129.706 28.8533C129.485 29.1203 129.145 29.2518 128.686 29.2518C128.331 29.2518 128.006 29.1704 127.709 29.0077C126.645 28.4026 126.113 27.1676 126.113 25.3045C126.113 24.7725 125.94 24.3511 125.592 24.0402C125.243 23.7294 124.745 23.575 124.096 23.575H119.948V27.8769C119.948 28.2754 119.842 28.6008 119.627 28.8533C119.412 29.1057 119.129 29.2309 118.774 29.2309C118.344 29.2309 117.973 29.1016 117.654 28.8429C117.336 28.5842 117.176 28.2629 117.176 27.879V15.0609C117.176 14.677 117.305 14.3557 117.564 14.097C117.823 13.8383 118.144 13.709 118.528 13.709H124.914C125.682 13.709 126.408 13.9155 127.088 14.3307C127.768 14.7438 128.31 15.3133 128.717 16.0373C129.124 16.7612 129.326 17.5749 129.326 18.4761C129.326 19.2147 129.126 19.9365 128.728 20.6375C128.329 21.3406 127.812 21.8976 127.175 22.3107C128.106 22.9616 128.617 23.8337 128.705 24.9269C128.748 25.1627 128.771 25.3921 128.771 25.6133C128.83 26.0723 128.89 26.3998 128.949 26.6001C129.007 26.8004 129.141 26.9506 129.347 27.0549C129.543 27.1759 129.696 27.3303 129.806 27.5222ZM125.583 20.915C125.834 20.6646 126.042 20.3267 126.205 19.9052C126.368 19.4838 126.449 19.029 126.449 18.5408C126.449 18.1277 126.368 17.7459 126.205 17.3996C126.042 17.0533 125.836 16.7758 125.583 16.5672C125.331 16.3606 125.074 16.2563 124.807 16.2563H119.951V21.2905H124.807C125.072 21.2926 125.331 21.1674 125.583 20.915Z" fill="white"/>
<path d="M145.495 25.4948C144.844 26.7153 143.947 27.6792 142.801 28.3885C141.656 29.0978 140.367 29.4525 138.931 29.4525C137.498 29.4525 136.207 29.0978 135.061 28.3885C133.916 27.6792 133.021 26.7153 132.378 25.4948C131.736 24.2743 131.415 22.9329 131.415 21.4704C131.415 20.0079 131.736 18.6664 132.378 17.446C133.021 16.2255 133.916 15.2616 135.061 14.5523C136.207 13.843 137.496 13.4883 138.931 13.4883C140.365 13.4883 141.654 13.843 142.801 14.5523C143.947 15.2616 144.844 16.2255 145.495 17.446C146.146 18.6664 146.471 20.0079 146.471 21.4704C146.471 22.9329 146.144 24.2743 145.495 25.4948ZM142.989 18.7749C142.591 17.9696 142.036 17.3291 141.326 16.8576C140.617 16.384 139.818 16.1483 138.931 16.1483C138.03 16.1483 137.227 16.382 136.526 16.8472C135.823 17.3124 135.276 17.9529 134.886 18.7645C134.494 19.5781 134.298 20.4794 134.298 21.4704C134.298 22.4614 134.494 23.3626 134.886 24.1763C135.278 24.9899 135.825 25.6283 136.526 26.0936C137.227 26.5588 138.03 26.7925 138.931 26.7925C139.818 26.7925 140.617 26.5567 141.326 26.0831C142.036 25.6096 142.591 24.9712 142.989 24.1659C143.388 23.3605 143.588 22.4614 143.588 21.4725C143.588 20.4794 143.388 19.5823 142.989 18.7749Z" fill="white"/>
<defs>
<linearGradient id="paint0_linear_341_15551" x1="94.4734" y1="21.547" x2="146.47" y2="21.547" gradientUnits="userSpaceOnUse">
<stop stop-color="white"/>
<stop offset="1" stop-color="white"/>
</linearGradient>
</defs>
</svg>
