<svg width="50" height="50" viewBox="0 0 50 50" fill="none" xmlns="http://www.w3.org/2000/svg">
<rect width="50" height="50" rx="12" fill="#E6EEF1"/>
<path d="M34 23V21C34 16 32 14 27 14H21C16 14 14 16 14 21V27C14 32 16 34 21 34H22" stroke="#181818" stroke-width="1.5" stroke-linecap="round" stroke-linejoin="round"/>
<path d="M14.0298 20.5H33.9998" stroke="#181818" stroke-width="1.5" stroke-linecap="round" stroke-linejoin="round"/>
<path d="M14.0298 27.5H23.9998" stroke="#181818" stroke-width="1.5" stroke-linecap="round" stroke-linejoin="round"/>
<path d="M20.5098 33.9897V14.0098" stroke="#181818" stroke-width="1.5" stroke-linecap="round" stroke-linejoin="round"/>
<path d="M27.5098 23.9897V14.0098" stroke="#181818" stroke-width="1.5" stroke-linecap="round" stroke-linejoin="round"/>
<path d="M27.6001 29.2V28.4C27.6001 27.07 28.0001 26 30.0001 26C32.0001 26 32.4001 27.07 32.4001 28.4V29.2" stroke="#181818" stroke-width="1.5" stroke-linecap="round" stroke-linejoin="round"/>
<path d="M32 33.9993H28C26.4 33.9993 26 33.5993 26 31.9993V31.1992C26 29.5992 26.4 29.1992 28 29.1992H32C33.6 29.1992 34 29.5992 34 31.1992V31.9993C34 33.5993 33.6 33.9993 32 33.9993Z" stroke="#181818" stroke-width="1.5" stroke-linecap="round" stroke-linejoin="round"/>
</svg>
