<svg width="40" height="40" viewBox="0 0 40 40" fill="none" xmlns="http://www.w3.org/2000/svg">
<rect width="40" height="40" rx="6" fill="#E6EEF1"/>
<path d="M29.6002 18.2H20.2002V21.9H25.7002C25.6002 22.8 25.0002 24.2 23.7002 25.1C22.9002 25.7 21.7002 26.1 20.2002 26.1C17.6002 26.1 15.3002 24.4 14.5002 21.9C14.3002 21.3 14.2002 20.6 14.2002 19.9C14.2002 19.2 14.3002 18.5 14.5002 17.9C14.6002 17.7 14.6002 17.5 14.7002 17.4C15.6002 15.3 17.7002 13.8 20.2002 13.8C22.1002 13.8 23.3002 14.6 24.1002 15.3L26.9002 12.5C25.2002 11 22.9002 10 20.2002 10C16.3002 10 12.9002 12.2 11.3002 15.5C10.6002 16.9 10.2002 18.4 10.2002 20C10.2002 21.6 10.6002 23.1 11.3002 24.5C12.9002 27.8 16.3002 30 20.2002 30C22.9002 30 25.2002 29.1 26.8002 27.6C28.7002 25.9 29.8002 23.3 29.8002 20.2C29.8002 19.4 29.7002 18.8 29.6002 18.2Z" stroke="#181818" stroke-width="1.5" stroke-miterlimit="10" stroke-linecap="round" stroke-linejoin="round"/>
</svg>
