<svg width="32" height="32" viewBox="0 0 32 32" fill="none" xmlns="http://www.w3.org/2000/svg">
<rect width="32" height="32" rx="8" fill="#E6EEF1"/>
<path d="M7.00435 27.807C6.13371 27.8089 5.27818 27.5796 4.52514 27.1426C3.77211 26.7056 3.14856 26.0766 2.7182 25.3198C2.29442 24.5683 2.08306 23.7156 2.10678 22.8532C2.13049 21.9907 2.38838 21.151 2.85281 20.4239L11.6794 6.56299C12.1312 5.81807 12.7726 5.20641 13.5381 4.79049C14.3036 4.37457 15.1658 4.16928 16.0367 4.19561C16.9068 4.21647 17.7558 4.46814 18.4967 4.92487C19.2377 5.3816 19.844 6.02699 20.2536 6.79499C21.0765 8.35084 20.9736 10.2227 19.9882 11.6833L11.1671 25.5441C10.7198 26.2411 10.1037 26.814 9.37606 27.2096C8.64837 27.6052 7.8326 27.8107 7.00435 27.807Z" fill="#004C4E"/>
<path d="M25.3505 20.4486C27.8602 20.4486 29.8948 18.4568 29.8948 15.9997C29.8948 13.5426 27.8602 11.5508 25.3505 11.5508C22.8407 11.5508 20.8062 13.5426 20.8062 15.9997C20.8062 18.4568 22.8407 20.4486 25.3505 20.4486Z" fill="url(#paint0_linear_180_16380)"/>
<defs>
<linearGradient id="paint0_linear_180_16380" x1="25.3505" y1="11.5508" x2="25.3505" y2="20.4486" gradientUnits="userSpaceOnUse">
<stop stop-color="#01B4B9"/>
<stop offset="1" stop-color="#00516F"/>
</linearGradient>
</defs>
</svg>
