<svg width="58" height="58" viewBox="0 0 58 58" fill="none" xmlns="http://www.w3.org/2000/svg">
<circle cx="29" cy="29" r="29" fill="#E6F8F8"/>
<path d="M40 20.0003C39.0424 20.6758 37.9821 21.1924 36.86 21.5303C36.2577 20.8378 35.4573 20.347 34.567 20.1242C33.6767 19.9015 32.7395 19.9575 31.8821 20.2847C31.0247 20.612 30.2884 21.1947 29.773 21.954C29.2575 22.7133 28.9877 23.6126 29 24.5303V25.5303C27.2426 25.5759 25.5013 25.1861 23.931 24.3957C22.3607 23.6054 21.0103 22.4389 20 21.0003C20 21.0003 16 30.0003 25 34.0003C22.9405 35.3983 20.4872 36.0992 18 36.0003C27 41.0003 38 36.0003 38 24.5003C37.9991 24.2217 37.9723 23.9439 37.92 23.6703C38.9406 22.6638 39.6608 21.393 40 20.0003V20.0003Z" stroke="#00222F" stroke-width="2" stroke-linecap="round" stroke-linejoin="round"/>
</svg>
