<svg width="58" height="58" viewBox="0 0 58 58" fill="none" xmlns="http://www.w3.org/2000/svg">
<circle cx="29" cy="29" r="29" fill="#E6F8F8"/>
<path d="M39.5396 23.42C39.4208 22.9454 39.1789 22.5106 38.8382 22.1594C38.4976 21.8082 38.0703 21.5532 37.5996 21.42C35.8796 21 28.9996 21 28.9996 21C28.9996 21 22.1196 21 20.3996 21.46C19.9288 21.5932 19.5016 21.8482 19.1609 22.1994C18.8203 22.5506 18.5784 22.9854 18.4596 23.46C18.1448 25.2056 17.9908 26.9763 17.9996 28.75C17.9884 30.537 18.1424 32.3213 18.4596 34.08C18.5906 34.5398 18.8379 34.9581 19.1777 35.2945C19.5176 35.6308 19.9384 35.8738 20.3996 36C22.1196 36.46 28.9996 36.46 28.9996 36.46C28.9996 36.46 35.8796 36.46 37.5996 36C38.0703 35.8668 38.4976 35.6118 38.8382 35.2606C39.1789 34.9094 39.4208 34.4746 39.5396 34C39.852 32.2676 40.0059 30.5103 39.9996 28.75C40.0108 26.963 39.8568 25.1787 39.5396 23.42V23.42Z" stroke="#00222F" stroke-width="2" stroke-linecap="round" stroke-linejoin="round"/>
<path d="M26.75 32.0205L32.5 28.7505L26.75 25.4805V32.0205Z" stroke="#00222F" stroke-width="2" stroke-linecap="round" stroke-linejoin="round"/>
</svg>
