<svg width="58" height="58" viewBox="0 0 58 58" fill="none" xmlns="http://www.w3.org/2000/svg">
<circle cx="29" cy="29" r="29" fill="#E6F8F8"/>
<path d="M25.5 36H25C21 36 19 35 19 30V25C19 21 21 19 25 19H33C37 19 39 21 39 25V30C39 34 37 36 33 36H32.5C32.19 36 31.89 36.15 31.7 36.4L30.2 38.4C29.54 39.28 28.46 39.28 27.8 38.4L26.3 36.4C26.14 36.18 25.77 36 25.5 36Z" stroke="#181818" stroke-width="1.5" stroke-miterlimit="10" stroke-linecap="round" stroke-linejoin="round"/>
<path d="M32.9965 28H33.0054" stroke="#181818" stroke-width="2" stroke-linecap="round" stroke-linejoin="round"/>
<path d="M28.9955 28H29.0045" stroke="#181818" stroke-width="2" stroke-linecap="round" stroke-linejoin="round"/>
<path d="M24.9945 28H25.0035" stroke="#181818" stroke-width="2" stroke-linecap="round" stroke-linejoin="round"/>
</svg>
